<?xml version="1.0" encoding="utf-8"?>
<!-- Generator: Adobe Illustrator 24.2.0, SVG Export Plug-In . SVG Version: 6.00 Build 0)  -->
<svg version="1.1" id="图层_1" xmlns="http://www.w3.org/2000/svg" xmlns:xlink="http://www.w3.org/1999/xlink" x="0px" y="0px"
	 viewBox="0 0 700 700" style="enable-background:new 0 0 700 700;" xml:space="preserve">
<style type="text/css">
	.st0{fill:#D3E2F9;}
	.st1{fill:#E2EEFA;}
	.st2{fill:#00B77B;}
	.st3{fill:#00D967;}
	.st4{fill:none;stroke:#FFFFFF;stroke-width:0.4303;stroke-linecap:round;stroke-linejoin:round;stroke-miterlimit:10;}
	.st5{fill:#D1E3FF;}
	.st6{fill:#E3EEFF;}
	.st7{fill:#F5FCFF;}
	.st8{fill:#FFFFFF;}
	.st9{fill:#E2EEFF;}
	.st10{fill:url(#SVGID_1_);}
	.st11{fill:#006DFE;}
	.st12{fill:#B0D8FF;}
	.st13{fill:#D5E1F7;}
	.st14{fill:#0E2354;}
	.st15{fill:#EBF5FF;}
	.st16{clip-path:url(#SVGID_3_);fill:#111742;}
	.st17{fill:#EA756C;}
	.st18{clip-path:url(#SVGID_5_);fill:#EA756C;}
	.st19{fill:#191E56;}
	.st20{clip-path:url(#SVGID_7_);fill:#EA756C;}
	.st21{clip-path:url(#SVGID_9_);fill:#EA756C;}
	.st22{clip-path:url(#SVGID_11_);fill:#FE8E00;}
	.st23{clip-path:url(#SVGID_13_);fill:#FE8E00;}
	.st24{clip-path:url(#SVGID_15_);fill:#18247A;}
	.st25{clip-path:url(#SVGID_17_);fill:#042FA8;}
	.st26{clip-path:url(#SVGID_19_);fill:#0054FC;}
	.st27{fill:#FFACA6;}
	.st28{fill:#F8FCFF;}
	.st29{fill:#DAEBFF;}
	.st30{fill:#D6E1FE;stroke:#054AA9;stroke-width:1.0758;stroke-miterlimit:10;}
	.st31{fill:#D6E1FE;stroke:#054AA9;stroke-width:1.0758;stroke-linecap:round;stroke-miterlimit:10;}
	.st32{fill:#D6E1FE;stroke:#054AA9;stroke-width:0.4303;stroke-linecap:round;stroke-miterlimit:10;}
	.st33{fill:#0542BF;}
	.st34{fill:#78C2FF;}
	.st35{fill:#45A7FF;}
	.st36{fill:#4893FF;}
	.st37{fill:#FFAB00;}
	.st38{fill:#FE8E00;}
	.st39{fill:#231F20;}
	.st40{fill:#1E2889;}
	.st41{fill:none;stroke:#F3F0DE;stroke-width:1.7212;stroke-miterlimit:10;}
	.st42{opacity:0.3;fill:#231F20;}
	.st43{clip-path:url(#SVGID_21_);fill:#EA756C;}
	.st44{clip-path:url(#SVGID_23_);fill:#003DAA;}
	.st45{clip-path:url(#SVGID_25_);fill:#131E6D;}
	.st46{clip-path:url(#SVGID_27_);fill:#EA756C;}
	.st47{clip-path:url(#SVGID_29_);fill:#172377;}
	.st48{clip-path:url(#SVGID_31_);fill:#072CA3;}
	.st49{clip-path:url(#SVGID_33_);fill:#FE8E00;}
	.st50{clip-path:url(#SVGID_35_);fill:#EA756C;}
	.st51{clip-path:url(#SVGID_37_);fill:#EA756C;}
	.st52{clip-path:url(#SVGID_39_);fill:#EA756C;}
	.st53{fill:#7BBDFF;}
	.st54{fill:#054AA9;}
	.st55{fill:none;stroke:#DE4D30;stroke-width:0.4303;stroke-linecap:round;stroke-linejoin:round;stroke-miterlimit:10;}
</style>
<g>
	<rect x="19" y="477.3" class="st0" width="630.7" height="3.8"/>
	<ellipse class="st1" cx="116.8" cy="530.7" rx="27.2" ry="7.3"/>
	<ellipse class="st1" cx="569.7" cy="509.6" rx="40.7" ry="8.8"/>
	<ellipse class="st1" cx="485.3" cy="524.6" rx="57.1" ry="6.5"/>
	
		<ellipse transform="matrix(0.9813 -0.1927 0.1927 0.9813 -101.7864 60.8816)" class="st1" cx="262.1" cy="553.7" rx="62.8" ry="14.5"/>
	<ellipse class="st1" cx="171.4" cy="530.6" rx="22.1" ry="3.9"/>
	<g>
		<path class="st2" d="M112.3,481.7c0,0-3.8,13.9-14.1,20.9c-10.3,7-27.3,4.3-37.6-0.9s-20.9-13.3-23.2-20.5
			c-2.4-7.2,13.1-7.3,13.1-7.3s-8.4-7.6-12.4-13.5c-4-5.9-2.2-13.2,7.6-11c9.8,2.2,9.8,2.2,9.8,2.2s-9.7-12.5-11.4-21.3
			c-1.6-8.7,0.8-22.8,12.4-15.6c11.6,7.3,16.5,26.4,16.5,26.4s0.5-8.7,2.3-15.3c1.8-6.7,8.4-7.2,13,0.6c4.6,7.8,8.2,19.6,8.2,19.6
			s0.9-9.9,5.8-9.3c4.9,0.5,9.8,10.9,11.2,21.7C114.8,469.2,112.3,481.7,112.3,481.7z"/>
		<path class="st3" d="M111.5,474.3c0,0,1.5-46.8-33.7-64.9c0,0-18,38.7,5.6,73.4s18.8,26.7,18.8,26.7L111.5,474.3z"/>
		<line class="st4" x1="84.1" y1="431.8" x2="101.8" y2="502.1"/>
	</g>
	<g>
		<rect x="554" y="215.4" class="st5" width="129.2" height="154.2"/>
		<rect x="556.8" y="215.4" class="st6" width="132.4" height="154.2"/>
		<rect x="554" y="369.6" class="st5" width="129.2" height="11"/>
		<rect x="566.6" y="369.6" class="st6" width="132.4" height="11"/>
		
			<rect x="554.1" y="234.6" transform="matrix(-1.836970e-16 1 -1 -1.836970e-16 915.4332 -330.4813)" class="st7" width="137.6" height="115.8"/>
		<polygon class="st8" points="579.3,361.3 627.8,223.7 650.8,223.7 602.2,361.3 		"/>
		<path class="st9" d="M568.9,314.6c-0.3,0-0.6-0.3-0.6-0.6v-85c0-0.3,0.3-0.6,0.6-0.6c0.3,0,0.6,0.3,0.6,0.6v85
			C569.5,314.3,569.2,314.6,568.9,314.6z"/>
		<polygon class="st8" points="607.1,361.3 655.7,223.7 664.6,223.7 616.1,361.3 		"/>
		
			<rect x="611.5" y="292" transform="matrix(-1.836970e-16 1 -1 -1.836970e-16 972.8224 -387.8706)" class="st5" width="137.6" height="1.1"/>
		<polygon class="st5" points="691.1,234.2 561.9,234.2 561.1,226.9 690.3,226.9 		"/>
		<polygon class="st5" points="691.1,239.6 561.9,239.6 561.1,232.3 690.3,232.3 		"/>
		<polygon class="st5" points="691.1,246.1 561.9,246.1 561.1,238.7 690.3,238.7 		"/>
		<polygon class="st5" points="691.1,253.3 561.9,253.3 561.1,246 690.3,246 		"/>
		<polygon class="st5" points="691.1,262 561.9,262 561.1,254.6 690.3,254.6 		"/>
		<polygon class="st5" points="691.1,271.7 561.9,271.7 561.1,264.3 690.3,264.3 		"/>
	</g>
	<g>
		<linearGradient id="SVGID_1_" gradientUnits="userSpaceOnUse" x1="114.1518" y1="386.9029" x2="542.4646" y2="386.9029">
			<stop  offset="0" style="stop-color:#B0D8FF"/>
			<stop  offset="1.537955e-02" style="stop-color:#B3D9FF"/>
			<stop  offset="0.145" style="stop-color:#C4E1FF"/>
			<stop  offset="0.3014" style="stop-color:#D1E7FF"/>
			<stop  offset="0.5117" style="stop-color:#D8EAFF"/>
			<stop  offset="1" style="stop-color:#DAEBFF"/>
		</linearGradient>
		<path class="st10" d="M114.2,261.3v238.4c0,7.1,5.7,12.8,12.8,12.8h402.7c7.1,0,12.8-5.7,12.8-12.8V261.3H114.2z"/>
		<path class="st11" d="M542.5,210.5c0-7.1-5.7-12.8-12.8-12.8H127c-7.1,0-12.8,5.7-12.8,12.8V229h428.3V210.5z"/>
		<rect x="114.2" y="229" class="st12" width="428.3" height="32.3"/>
	</g>
	<path class="st13" d="M420.9,488.8H239.1c-1.1,0-2-0.9-2-2v-55.7c0-1.1,0.9-2,2-2h181.8c1.1,0,2,0.9,2,2v55.7
		C422.9,487.9,422,488.8,420.9,488.8z"/>
	<path class="st8" d="M419.1,487.1H237.3c-1.1,0-2-0.9-2-2v-55.7c0-1.1,0.9-2,2-2h181.8c1.1,0,2,0.9,2,2v55.7
		C421.1,486.2,420.2,487.1,419.1,487.1z"/>
	<path class="st14" d="M468.3,197.7h-42c-0.4,0-0.7-0.3-0.7-0.7v-3.3c0-0.4,0.3-0.7,0.7-0.7h42c0.4,0,0.7,0.3,0.7,0.7v3.3
		C469,197.4,468.7,197.7,468.3,197.7z"/>
	<path class="st14" d="M468.3,192l18-36.7c0.3-0.6,1-0.9,1.7-0.6l0.5,0.2c0.6,0.3,0.9,1,0.6,1.7l-18,36.7c-0.3,0.6-1,0.9-1.7,0.6
		l-0.5-0.2C468.3,193.4,468,192.6,468.3,192z"/>
	<g>
		<path class="st13" d="M266.5,412.5h-28.4c-0.3,0-0.6-0.3-0.6-0.6v-28.4c0-0.3,0.3-0.6,0.6-0.6h28.4c0.3,0,0.6,0.3,0.6,0.6v28.4
			C267.1,412.2,266.8,412.5,266.5,412.5z"/>
		<path class="st13" d="M305,412.5h-28.4c-0.3,0-0.6-0.3-0.6-0.6v-28.4c0-0.3,0.3-0.6,0.6-0.6H305c0.3,0,0.6,0.3,0.6,0.6v28.4
			C305.6,412.2,305.3,412.5,305,412.5z"/>
		<path class="st13" d="M343.5,412.5h-28.4c-0.3,0-0.6-0.3-0.6-0.6v-28.4c0-0.3,0.3-0.6,0.6-0.6h28.4c0.3,0,0.6,0.3,0.6,0.6v28.4
			C344.1,412.2,343.8,412.5,343.5,412.5z"/>
		<path class="st13" d="M382,412.5h-28.4c-0.3,0-0.6-0.3-0.6-0.6v-28.4c0-0.3,0.3-0.6,0.6-0.6H382c0.3,0,0.6,0.3,0.6,0.6v28.4
			C382.6,412.2,382.4,412.5,382,412.5z"/>
		<path class="st13" d="M420.6,412.5h-28.4c-0.3,0-0.6-0.3-0.6-0.6v-28.4c0-0.3,0.3-0.6,0.6-0.6h28.4c0.3,0,0.6,0.3,0.6,0.6v28.4
			C421.1,412.2,420.9,412.5,420.6,412.5z"/>
	</g>
	<g>
		<g>
			<path class="st15" d="M265.3,411.7H237c-0.3,0-0.6-0.3-0.6-0.6v-28.4c0-0.3,0.3-0.6,0.6-0.6h28.4c0.3,0,0.6,0.3,0.6,0.6v28.4
				C265.9,411.5,265.7,411.7,265.3,411.7z"/>
			<path class="st15" d="M303.9,411.7h-28.4c-0.3,0-0.6-0.3-0.6-0.6v-28.4c0-0.3,0.3-0.6,0.6-0.6h28.4c0.3,0,0.6,0.3,0.6,0.6v28.4
				C304.4,411.5,304.2,411.7,303.9,411.7z"/>
			<path class="st15" d="M342.4,411.7H314c-0.3,0-0.6-0.3-0.6-0.6v-28.4c0-0.3,0.3-0.6,0.6-0.6h28.4c0.3,0,0.6,0.3,0.6,0.6v28.4
				C342.9,411.5,342.7,411.7,342.4,411.7z"/>
			<path class="st15" d="M380.9,411.7h-28.4c-0.3,0-0.6-0.3-0.6-0.6v-28.4c0-0.3,0.3-0.6,0.6-0.6h28.4c0.3,0,0.6,0.3,0.6,0.6v28.4
				C381.5,411.5,381.2,411.7,380.9,411.7z"/>
			<path class="st15" d="M419.4,411.7H391c-0.3,0-0.6-0.3-0.6-0.6v-28.4c0-0.3,0.3-0.6,0.6-0.6h28.4c0.3,0,0.6,0.3,0.6,0.6v28.4
				C420,411.5,419.7,411.7,419.4,411.7z"/>
		</g>
	</g>
	<path class="st13" d="M420.2,364.2H238.5c-1.1,0-2-0.9-2-2v-55.7c0-1.1,0.9-2,2-2h181.8c1.1,0,2,0.9,2,2v55.7
		C422.2,363.3,421.3,364.2,420.2,364.2z"/>
	<path class="st8" d="M419.1,362.9H237.3c-1.1,0-2-0.9-2-2v-55.7c0-1.1,0.9-2,2-2h181.8c1.1,0,2,0.9,2,2v55.7
		C421.1,362,420.2,362.9,419.1,362.9z"/>
	<g>
		<path class="st3" d="M295.3,317.4H244c-1.7,0-3.1-1.4-3.1-3.1l0,0c0-1.7,1.4-3.1,3.1-3.1h51.4c1.7,0,3.1,1.4,3.1,3.1l0,0
			C298.5,316,297.1,317.4,295.3,317.4z"/>
		<path class="st13" d="M412.1,332.2H242.3c-0.8,0-1.5-0.7-1.5-1.5v-3.4c0-0.8,0.7-1.5,1.5-1.5h169.8c0.8,0,1.5,0.7,1.5,1.5v3.4
			C413.6,331.5,412.9,332.2,412.1,332.2z"/>
		<path class="st15" d="M410.4,343.7H244c-1.7,0-3.1-1.4-3.1-3.1l0,0c0-1.7,1.4-3.1,3.1-3.1h166.5c1.7,0,3.1,1.4,3.1,3.1l0,0
			C413.6,342.3,412.2,343.7,410.4,343.7z"/>
		<path class="st15" d="M410.4,355H244c-1.7,0-3.1-1.4-3.1-3.1l0,0c0-1.7,1.4-3.1,3.1-3.1h166.5c1.7,0,3.1,1.4,3.1,3.1l0,0
			C413.6,353.6,412.2,355,410.4,355z"/>
	</g>
	<g>
		<path class="st13" d="M297,440.4h-54.7c-0.8,0-1.5-0.7-1.5-1.5v-3.4c0-0.8,0.7-1.5,1.5-1.5H297c0.8,0,1.5,0.7,1.5,1.5v3.4
			C298.5,439.7,297.8,440.4,297,440.4z"/>
		<path class="st3" d="M410.4,455.2H244c-1.7,0-3.1-1.4-3.1-3.1l0,0c0-1.7,1.4-3.1,3.1-3.1h166.5c1.7,0,3.1,1.4,3.1,3.1l0,0
			C413.6,453.8,412.2,455.2,410.4,455.2z"/>
		<path class="st13" d="M412.1,466.7H242.3c-0.8,0-1.5-0.7-1.5-1.5v-3.4c0-0.8,0.7-1.5,1.5-1.5h169.8c0.8,0,1.5,0.7,1.5,1.5v3.4
			C413.6,466.1,412.9,466.7,412.1,466.7z"/>
		<path class="st15" d="M412.1,478H242.3c-0.8,0-1.5-0.7-1.5-1.5v-3.4c0-0.8,0.7-1.5,1.5-1.5h169.8c0.8,0,1.5,0.7,1.5,1.5v3.4
			C413.6,477.3,412.9,478,412.1,478z"/>
	</g>
	<g>
		<defs>
			<path id="SVGID_2_" d="M570.1,284.8c0,0-4.5-2.8-3.3-10.1c1.2-7.3,8.8-7.2,8.8-7.2s6.2-7.1,16.5,0c10.2,7.1,6.1,26.2,14.3,32.7
				s12.3,8,20.5,10.8c8.3,2.8,10.7,8.1,10.8,17c0.1,8.9-11.1,17.2-19.6,15.2c-8.5-2-7.6-7.6-14.8-11.1c-7.2-3.4-8.6-4.5-9.9-11.4
				c-1.3-6.9-6.4-13.4-12.1-15.1C575.7,303.9,570.1,284.8,570.1,284.8z"/>
		</defs>
		<use xlink:href="#SVGID_2_"  style="overflow:visible;fill:#191E56;"/>
		<clipPath id="SVGID_3_">
			<use xlink:href="#SVGID_2_"  style="overflow:visible;"/>
		</clipPath>
		<path class="st16" d="M568,284.2c0,0-1.1-7.1,2.2-9.6c0,0,9.7,6.6,13.7,5.9c4-0.7,4.5,8.6,6,12c1.5,3.4,10.1,23.6,24.7,29.9
			c14.7,6.3,24.9,6.6,24.9,6.6l-9.9,19.3c0,0-13.9,2.7-17.6,0.1c-3.7-2.6-14.2-6.1-19.4-17.4c-5.3-11.3-10.1-12.5-13.5-19.1
			s-3.4-6.2-5.3-11.5C571.6,295.2,568,284.2,568,284.2z"/>
	</g>
	<path class="st17" d="M567.2,315.2c0,0-7.2,22.5-32.1-1.5c0,0-1-10.5-4.2-14.7h-2.6v19c0,0,14.5,14,22.4,15.4
		c7.9,1.4,18.6,0.8,24.7-12.7L567.2,315.2z"/>
	<g>
		<defs>
			<path id="SVGID_4_" d="M263.5,378.5l-0.4,2.5c0,0,2,6.8-1.9,10.9l5.5,5.4l5.8-4.9c0,0-1.8-3-0.1-10.8l-5.2-7.4L263.5,378.5z"/>
		</defs>
		<use xlink:href="#SVGID_4_"  style="overflow:visible;fill:#FFACA6;"/>
		<clipPath id="SVGID_5_">
			<use xlink:href="#SVGID_4_"  style="overflow:visible;"/>
		</clipPath>
		<path class="st18" d="M262.1,384.4c0,0,8-1.1,11.1,4.3l1.7-9.2l-6.4-8.1l-6.1,0.9l-2.4,6.5L262.1,384.4z"/>
	</g>
	<path class="st19" d="M276.5,365.5c0,0,7.7,0.4,7.1-10.4c-0.6-10.8-7.3-5.4-10.5-7s-4.3-5.5-11.8-1.6c-2.2,1-4,1-6.3,1.2
		c-2.3,0.2-3.1,2.3-2.6,4.1s0.4,3.8-2.2,4.8s-4.3,4.8-1.8,6.6c2.5,1.9,0.9,4.5,0,5.6c-0.9,1.1-1,3.9,3.3,4.4
		c4.3,0.5,4.1,4.3,5.7,4.8c1.6,0.5,4.7,0.8,5.3,2.6c0.6,1.8,4.9-4.8,4.9-4.8L276.5,365.5z"/>
	<path class="st19" d="M212,542.5c0,0-5-1.5-8.9,0s-3.4,7.3-1.7,10.8c1.8,3.5,2.5,12.7,9.8,14.1c7.3,1.4,12-4.5,6.5-7.8
		c-4.4-2.6-4.4-4.3-4.1-6.6c0.3-2.3,3.3-3.1,3.3-3.1L212,542.5z"/>
	<path class="st19" d="M297.8,524.7c0,0-8.7,11.8-4.9,14c3.8,2.1,19.3,5.9,21.8,4.2c2.5-1.6,5.5-6.8-1.5-9c-7-2.2-7.9-4.4-6.7-8.1
		l-7.9-2.2L297.8,524.7z"/>
	<g>
		<defs>
			<path id="SVGID_6_" d="M241.9,381c0,0-9.1-10.4-9.1-16.7c0-6.3,1.6-26,1.6-26s3.9-13.6-0.2-18.6c-4.5-5.5-7.3,1.8-7.5,4.3
				c-0.2,2.5,1.3,14,1.3,14s-5.6,21.3-4.8,29.5c0.9,8.2,13.1,24,13.1,24L241.9,381z"/>
		</defs>
		<use xlink:href="#SVGID_6_"  style="overflow:visible;fill:#FFACA6;"/>
		<clipPath id="SVGID_7_">
			<use xlink:href="#SVGID_6_"  style="overflow:visible;"/>
		</clipPath>
		<path class="st20" d="M222.6,365.7c0,0,6.3,15.7,10.3,15.3c3.9-0.4,7.4-5.1,7.4-5.1l1.7,3.5l1.9,7.5l-5.2,3.5c0,0-3.6,2.4-4.1,2.4
			c-0.5,0-5.2-6.7-5.8-8c-0.6-1.3-7.2-8.3-7.1-9.6C221.7,374.1,222.6,365.7,222.6,365.7"/>
	</g>
	<g>
		<defs>
			<path id="SVGID_8_" d="M308.7,398c0,0,10.6,2.6,11.6,0.6c1-2,5.2-24.6,8.3-28.3s7.5-5,11.3-8c3.9-3,11.6-5.6,3.7,6.7
				c-4.8,6.7-8,3.4-9.8,9.1c-1.9,5.7-3.1,28.8-6.9,30.9c-3.8,2.1-20.2,0.1-20.2,0.1L308.7,398z"/>
		</defs>
		<use xlink:href="#SVGID_8_"  style="overflow:visible;fill:#FFACA6;"/>
		<clipPath id="SVGID_9_">
			<use xlink:href="#SVGID_8_"  style="overflow:visible;"/>
		</clipPath>
		<path class="st21" d="M312.2,397.3c0,0-1.3,8.4,2,9c3.3,0.6,8.4,0.3,10.6-0.2c4.6-1.1,6-9.8,6-9.8l0.3,12.4l-12.8,4.8l-13.9-0.7
			c0,0-3.1-3.8-3-4.3c0.1-0.5,3.5-9.6,3.7-10.2c0.2-0.6,4.1-3.4,4.1-3.4L312.2,397.3z"/>
	</g>
	<g>
		<defs>
			<path id="SVGID_10_" d="M596.6,488.3c0,0,1.2,3.9,2.6,6.8c1.4,2.9,4.5,4.4,4.7,7.6c0.3,3.2-8.1,7.2-13.8,10.7
				c-5.7,3.5-11.5,4.7-12.9-0.2c-1.3-4.9,9.2-7.6,10.4-14.9s-0.3-7.7-0.3-7.7L596.6,488.3z"/>
		</defs>
		<use xlink:href="#SVGID_10_"  style="overflow:visible;fill:#FFAB00;"/>
		<clipPath id="SVGID_11_">
			<use xlink:href="#SVGID_10_"  style="overflow:visible;"/>
		</clipPath>
		<path class="st22" d="M578.4,507.7c0,0,8.9,0.2,11.2-4.7c2.2-5,10.1-10.3,10.1-10.3l-1.9-5.7l-10.2,2.2c0,0-3.6,4.7-3.5,5.3
			C584.3,495.2,578.4,507.7,578.4,507.7z"/>
	</g>
	<g>
		<defs>
			<path id="SVGID_12_" d="M559.4,487.6c0,0,0,4.1,0.4,7.3c0.4,3.2,2.9,5.5,2.2,8.7c-0.7,3.2-9.9,4.4-16.4,6
				c-6.4,1.6-12.4,0.9-12.2-4.1c0.2-5,11.1-4.4,14.5-11.1c3.4-6.6,2-7.5,2-7.5L559.4,487.6z"/>
		</defs>
		<use xlink:href="#SVGID_12_"  style="overflow:visible;fill:#FFAB00;"/>
		<clipPath id="SVGID_13_">
			<use xlink:href="#SVGID_12_"  style="overflow:visible;"/>
		</clipPath>
		<path class="st23" d="M530.6,507.3c0,0,9.4-5.5,18.5-8.6s8.4-5.7,13.5-4.8l-1.3-6.9h-13.2l-5.8,5.4l-11.4,8.5L530.6,507.3z"/>
	</g>
	<g>
		<defs>
			<path id="SVGID_14_" d="M564.6,370.8c0,0-17,52.9-15.4,67.9c1.6,15,0.2,50.5,0.2,50.5s6.4,3.6,10.3,0.5c0,0,4.8-39.3,3.9-49.6
				c-0.9-10.3,0.2-11.3,7.1-28s14.3-26.8,15.1-30.5L564.6,370.8z"/>
		</defs>
		<use xlink:href="#SVGID_14_"  style="overflow:visible;fill:#1E2889;"/>
		<clipPath id="SVGID_15_">
			<use xlink:href="#SVGID_14_"  style="overflow:visible;"/>
		</clipPath>
		<path class="st24" d="M576,372.1l-9.7,9.8c0,0-6.1,29.8-6.5,43.4c-0.4,13.5,1.2,58.3,1.2,58.3l8.8-50.2c0,0,3.7-7.7,8.1-20.5
			c4.3-12.8,0.5-19.1,0.6-27.1C578.7,377.9,576,372.1,576,372.1z"/>
	</g>
	<g>
		<defs>
			<path id="SVGID_16_" d="M568.9,375c0,0-1.5,55.5,4.3,69.5c5.8,14,14.4,48.5,14.4,48.5s7.2,1.6,10.1-2.4c0,0-5.1-39.7-8.8-49.3
				s-4.4-10.3-2.5-28.3c1.9-18,7.1-26.1,5.7-34L568.9,375z"/>
		</defs>
		<use xlink:href="#SVGID_16_"  style="overflow:visible;fill:#0542BF;"/>
		<clipPath id="SVGID_17_">
			<use xlink:href="#SVGID_16_"  style="overflow:visible;"/>
		</clipPath>
		<path class="st25" d="M578.1,383.1c0,0-6.9,50.9,0.2,86.5c0,0-11.7-32.6-11.9-33.2c-0.2-0.6-1.5-37.5-1.5-37.5l-0.9-20.7
			c0,0,10.8,0.6,11.2,0.6C575.5,378.9,578.1,383.1,578.1,383.1z"/>
	</g>
	<g>
		<defs>
			<path id="SVGID_18_" d="M582.4,304l1.8-0.1c0,0,3.4,1,4.4,4.3c1,3.3,4.3,16,1.7,30.6c-2.6,14.5,2.2,41.6,2.2,41.6
				s-15.5,9.9-30.7,0c0,0,3.6-14.4,3.5-29.6c-0.2-15.2-5.3-21.2-0.8-31.5c4.5-10.2,9.1-14.4,11.1-14.6L582.4,304z"/>
		</defs>
		<use xlink:href="#SVGID_18_"  style="overflow:visible;fill:#006DFE;"/>
		<clipPath id="SVGID_19_">
			<use xlink:href="#SVGID_18_"  style="overflow:visible;"/>
		</clipPath>
		<path class="st26" d="M563,349.7c0,0,18.8-26,22.4-34.4c0,0,4.1,2.5-0.5,17.2c-4.6,14.7-17.4,22.6-20.9,22.9L563,349.7z"/>
	</g>
	<path class="st27" d="M567.2,335.3c0,0-7.2,22.5-32.1-1.5c0,0-1-10.5-4.2-14.7h-2.6v16.5c0,0,14.5,16.5,22.4,17.9
		c7.9,1.4,18.6,0.8,24.7-12.7L567.2,335.3z"/>
	<path class="st12" d="M218.3,429.4H52.5c-1,0-1.7-0.8-1.7-1.7v-44.9c0-1,0.8-1.7,1.7-1.7h165.8c1,0,1.7,0.8,1.7,1.7v44.9
		C220,428.6,219.2,429.4,218.3,429.4z"/>
	<path class="st15" d="M216.1,427.4H52.5c-0.9,0-1.7-0.8-1.7-1.7v-43c0-0.9,0.8-1.7,1.7-1.7h163.6c0.9,0,1.7,0.8,1.7,1.7v43
		C217.8,426.7,217,427.4,216.1,427.4z"/>
	<path class="st13" d="M210.1,358.7h-80.8c-0.9,0-1.6-0.7-1.6-1.6v-82.8c0-0.9,0.7-1.6,1.6-1.6h80.8c0.9,0,1.6,0.7,1.6,1.6v82.8
		C211.7,358,211,358.7,210.1,358.7z"/>
	<path class="st8" d="M208.7,357.3h-80.8c-0.9,0-1.6-0.7-1.6-1.6v-82.8c0-0.9,0.7-1.6,1.6-1.6h80.8c0.9,0,1.6,0.7,1.6,1.6v82.8
		C210.3,356.6,209.6,357.3,208.7,357.3z"/>
	<path class="st13" d="M528.1,358.4h-80.8c-0.9,0-1.6-0.7-1.6-1.6V274c0-0.9,0.7-1.6,1.6-1.6h80.8c0.9,0,1.6,0.7,1.6,1.6v82.8
		C529.7,357.7,529,358.4,528.1,358.4z"/>
	<path class="st8" d="M526.8,357.3H446c-0.9,0-1.6-0.7-1.6-1.6v-82.8c0-0.9,0.7-1.6,1.6-1.6h80.8c0.9,0,1.6,0.7,1.6,1.6v82.8
		C528.4,356.6,527.7,357.3,526.8,357.3z"/>
	<path class="st12" d="M535,524.6h-98.7c-1.2,0-2.1-1-2.1-2.1v-116c0-1.2,1-2.1,2.1-2.1H535c1.2,0,2.1,1,2.1,2.1v116
		C537.1,523.6,536.2,524.6,535,524.6z"/>
	<path class="st28" d="M532.7,522.9h-97.4c-1.2,0-2.1-0.9-2.1-2.1V406.4c0-1.2,0.9-2.1,2.1-2.1h97.4c1.2,0,2.1,0.9,2.1,2.1v114.3
		C534.9,521.9,533.9,522.9,532.7,522.9z"/>
	<path class="st3" d="M369,289.3H236.9c-0.9,0-1.6-0.7-1.6-1.6v-6.8c0-0.9,0.7-1.6,1.6-1.6H369c0.9,0,1.6,0.7,1.6,1.6v6.8
		C370.6,288.6,369.9,289.3,369,289.3z"/>
	<rect x="126.3" y="239.4" class="st8" width="244.4" height="11.6"/>
	<rect x="402.4" y="239.4" class="st29" width="88.7" height="11.6"/>
	<g>
		
			<ellipse transform="matrix(0.2298 -0.9732 0.9732 0.2298 61.8616 558.7281)" class="st30" cx="383.9" cy="240.3" rx="4.3" ry="4.3"/>
		<line class="st31" x1="385.8" y1="244.2" x2="388.7" y2="249.8"/>
		<path class="st32" d="M382.1,241.2c0,0-0.4-2,1.8-3"/>
	</g>
	<g>
		<g>
			<path class="st33" d="M527.7,241.7h-21.2c-0.2,0-0.3-0.1-0.3-0.3v-2.5c0-0.2,0.1-0.3,0.3-0.3h21.2c0.2,0,0.3,0.1,0.3,0.3v2.5
				C528,241.6,527.9,241.7,527.7,241.7z"/>
			<path class="st33" d="M527.7,246.8h-21.2c-0.2,0-0.3-0.1-0.3-0.3V244c0-0.2,0.1-0.3,0.3-0.3h21.2c0.2,0,0.3,0.1,0.3,0.3v2.5
				C528,246.6,527.9,246.8,527.7,246.8z"/>
			<path class="st33" d="M527.7,251.9h-21.2c-0.2,0-0.3-0.1-0.3-0.3V249c0-0.2,0.1-0.3,0.3-0.3h21.2c0.2,0,0.3,0.1,0.3,0.3v2.5
				C528,251.7,527.9,251.9,527.7,251.9z"/>
		</g>
	</g>
	<rect x="220.7" y="276.3" class="st8" width="2" height="217.2"/>
	<rect x="432.2" y="276.3" class="st8" width="2" height="217.2"/>
	<g>
		<path class="st12" d="M90.6,419.4H62.2c-0.3,0-0.6-0.3-0.6-0.6v-28.4c0-0.3,0.3-0.6,0.6-0.6h28.4c0.3,0,0.6,0.3,0.6,0.6v28.4
			C91.1,419.1,90.9,419.4,90.6,419.4z"/>
		<path class="st34" d="M129.1,419.4h-28.4c-0.3,0-0.6-0.3-0.6-0.6v-28.4c0-0.3,0.3-0.6,0.6-0.6h28.4c0.3,0,0.6,0.3,0.6,0.6v28.4
			C129.6,419.1,129.4,419.4,129.1,419.4z"/>
		<path class="st35" d="M167.6,419.4h-28.4c-0.3,0-0.6-0.3-0.6-0.6v-28.4c0-0.3,0.3-0.6,0.6-0.6h28.4c0.3,0,0.6,0.3,0.6,0.6v28.4
			C168.2,419.1,167.9,419.4,167.6,419.4z"/>
		<path class="st36" d="M206.1,419.4h-28.4c-0.3,0-0.6-0.3-0.6-0.6v-28.4c0-0.3,0.3-0.6,0.6-0.6h28.4c0.3,0,0.6,0.3,0.6,0.6v28.4
			C206.7,419.1,206.4,419.4,206.1,419.4z"/>
	</g>
	<g>
		<rect x="154.5" y="509.4" class="st34" width="35.7" height="21.2"/>
		<g>
			<g>
				<path class="st37" d="M174.2,488.7c0,1.2-1,2.1-2.1,2.1l-4,0c-1.2,0-2.1-1-2.1-2.1l0-26.8c0-1.2,1-2.1,2.1-2.1l4,0
					c1.2,0,2.1,1,2.1,2.1L174.2,488.7z"/>
				<path class="st19" d="M170.1,487.5c0.7,0,1.3,0.6,1.3,1.3l0,9.1c0,0.5-0.3,0.9-0.7,1.1l-20.2,11.3l0,8.4l42.8,0
					c0.7,0,1.3,0.6,1.3,1.3c0,0.7-0.6,1.3-1.3,1.3l-44.1,0c-0.7,0-1.3-0.6-1.3-1.3v-10.4c0-0.5,0.3-0.9,0.7-1.1l20.2-11.3l0-8.3
					C168.8,488.1,169.4,487.5,170.1,487.5z"/>
				<path class="st38" d="M164.4,488.1c0-1.2,1-2.1,2.1-2.1l7.2,0c1.2,0,2.1,1,2.1,2.1l0,0.5c0,1.2-1,2.1-2.1,2.1l-7.2,0
					c-1.2,0-2.1-1-2.1-2.1L164.4,488.1z"/>
				<path class="st36" d="M152.6,516c0-1.2,1-2.1,2.1-2.1l35.2,0c1.2,0,2.1,1,2.1,2.1l0,8c0,1.2-1,2.1-2.1,2.1h-35.2
					c-1.2,0-2.1-1-2.1-2.1V516z"/>
			</g>
			<rect x="152" y="518.7" class="st39" width="0.6" height="2.6"/>
			<rect x="192.1" y="518.7" class="st39" width="0.6" height="2.6"/>
			<rect x="168.8" y="490.8" class="st39" width="2.6" height="0.7"/>
		</g>
	</g>
	<g>
		<path class="st40" d="M90.4,484.9l4.7,44.3c0,0,0.4,3.4,3.6,3.4c3.8,0,16,0,17.8,0c0.1,0,0.2,0,0.2,0c1.8,0,14,0,17.8,0
			c3.2,0,3.6-3.4,3.6-3.4l4.7-44.3H90.4z"/>
		<path class="st41" d="M85.6,480.9c0,0-1.3,35.1,31.5,35.1c32.8,0,30.3-34.2,30.3-34.2"/>
		<g>
			<path class="st19" d="M146.4,484.6c0,0.4-0.3,0.6-0.6,0.6h-58c-0.4,0-0.6-0.3-0.6-0.6v-7.8c0-0.4,0.3-0.6,0.6-0.6h58
				c0.4,0,0.6,0.3,0.6,0.6V484.6z"/>
		</g>
		<path class="st19" d="M149.3,480.9c0,1.2-0.9,2.2-1.9,2.2c-1.1,0-1.9-1-1.9-2.2c0-1.2,0.9-2.2,1.9-2.2
			C148.4,478.7,149.3,479.7,149.3,480.9z"/>
		<path class="st19" d="M88.2,480.7c0,1.2-0.9,2.2-1.9,2.2c-1.1,0-1.9-1-1.9-2.2c0-1.2,0.9-2.2,1.9-2.2
			C87.3,478.5,88.2,479.5,88.2,480.7z"/>
		<path class="st42" d="M87.2,478.1c0,0-0.3,3.8,0.2,5.7c0.1,0.5,0.2,0.9,0.4,1.4c1.1,0.5,2.5-0.6,3,0.1c0.5,0.8,0.1,1.8,0.1,4.1
			c1.6,1.1,3.6,1.5,5.9,1.7c7.1,0.7,9.4-5.9,11.7-7.3c2.3-1.4,4.9,6.5,4.7,11.9c-0.2,5.4-2.6,13.5,3.6,13.5c6.1,0,1.2-8.7,1.2-13.7
			c-0.1-7.9,5.7-13.3,8.1-13.3c2.5,0,2.3,6.1,9.6,5.6c7.3-0.5,10.4-11.6,9.1-11.6c-1.2,0-47.8,0.5-56.5,0.6
			C87.3,476.8,87.2,478.1,87.2,478.1z"/>
		<path class="st35" d="M87.2,477.2c0,0-0.3,3.8,0.2,5.7c1.3,5.6,4.8,6.8,9.4,7.3c7.1,0.7,9.4-5.9,11.7-7.3
			c2.3-1.4,4.9,6.5,4.7,11.9c-0.2,5.4-2.6,13.5,3.6,13.5c6.1,0,1.2-8.7,1.2-13.7c-0.1-7.9,5.7-13.3,8.1-13.3c2.5,0,2.3,6.1,9.6,5.6
			c7.3-0.5,10-10.7,8.7-10.7l-56-0.2C87.3,476,87.2,477.2,87.2,477.2z"/>
	</g>
	<g>
		<path class="st17" d="M385.4,186.8c0,0,7.4,7.2,13.8,7.5c6.4,0.3,26.2-7.7,26.2-7.7s6.2-3.9,12.7-1.9c6.5,2,4.4,5.9-1.7,5.4
			c-6.2-0.5-8.3,0.7-8.3,0.7s-18.9,11.4-27.4,11.5s-15.7-6.2-20.5-11L385.4,186.8z"/>
		<path class="st19" d="M367.4,177.3c0,0,0.3-3.2,2.9-4.5c2.6-1.2,5.4-1.1,8.6,3.6s9.4,12.5,9.4,12.5s-3.1,8.6-11.5,7.2
			C376.8,196,367.5,181.4,367.4,177.3z"/>
		<path class="st37" d="M228.8,146.5c0,0-0.8-4-1-7.2c-0.2-3.2,1.8-6,0.4-8.9s-10.6-2.4-17.2-2.7s-12.4,1.5-11.1,6.4
			c1.2,4.9,11.7,2.1,16.4,8s3.5,6.9,3.5,6.9L228.8,146.5z"/>
		<path class="st19" d="M231.6,184c0,0-8.9-7.7-13-18.6c-4.3-11.2-2.2-19.9-2.2-19.9s5.4-3.4,13.7-3.3c0,0,0.9,16,7.1,23.8
			c5.4,6.8,14.3,12.8,14.3,12.8L231.6,184z"/>
		<g>
			<defs>
				<path id="SVGID_20_" d="M379.5,161.9c0,0.1,0.1,6-5.2,9.4l1.3,5l4.6,1.3c0,0,2.5-6.3,5.2-7.4l1.7-2l-5.5-7.7L379.5,161.9z"/>
			</defs>
			<use xlink:href="#SVGID_20_"  style="overflow:visible;fill:#FFACA6;"/>
			<clipPath id="SVGID_21_">
				<use xlink:href="#SVGID_20_"  style="overflow:visible;"/>
			</clipPath>
			<path class="st43" d="M376.6,167.3c0.2,0,5.8,3.2,6.5,7.6c0,0,4.5-3.8,4.7-3.9c0.2-0.1-0.7-6.1-0.7-6.1s-2.6-3.7-3.4-3.7
				c-0.8,0-6.3,2.6-7,2.7C376.1,164,376.6,167.3,376.6,167.3z"/>
		</g>
		<g>
			<defs>
				<path id="SVGID_22_" d="M293.2,176.1l3.2-1.2c0,0,16,3.2,26.2,1.8c10.2-1.4,43.7-8.1,51.6-5.5c0,0,2.9,5.1,5.9,6.3
					c0,0-7.2,19.4-21,19.9c-13.8,0.5-64.7,0-64.7,0L293.2,176.1z"/>
			</defs>
			<use xlink:href="#SVGID_22_"  style="overflow:visible;fill:#0542BF;"/>
			<clipPath id="SVGID_23_">
				<use xlink:href="#SVGID_22_"  style="overflow:visible;"/>
			</clipPath>
			<path class="st44" d="M293.2,190.6c0,0,17.1,0.2,33.4,0c16.2-0.2,42.6-11.5,51.9-16.3l4.6,3.2l-2.7,6.5l-11.7,18.6l-21.2,3.1
				c0,0-30.2,0.1-34,0c-3.9-0.1-18-3.7-18-3.7s-3.7-4-3.7-4.2C291.7,197.7,293.2,190.6,293.2,190.6z"/>
		</g>
		<path class="st27" d="M381.9,192.7c0,0,7.4,7.2,13.8,7.5c6.4,0.3,26.2-7.7,26.2-7.7s6.2-3.9,12.7-1.9c6.5,2,4.4,5.9-1.7,5.4
			s-8.3,0.7-8.3,0.7s-18.9,11.4-27.4,11.5c-8.5,0-17-5.3-21.7-10.1L381.9,192.7z"/>
		<path class="st40" d="M363.3,180.4c0,0,0.3-3.2,2.9-4.5c2.6-1.2,5.4-1.1,8.6,3.6s9.4,12.5,9.4,12.5s-3.1,8.6-11.5,7.2
			C372.6,199.2,363.4,184.6,363.3,180.4z"/>
		<g>
			<defs>
				<path id="SVGID_24_" d="M397.4,157.1l1.7-0.6c0,0,3.4,0.9,5-2.1s-1.2-4-1.6-5.6c-0.4-1.6,2.6-4.3-1.4-8c-4-3.7-6.9-1.9-10.5-2.7
					c-3.6-0.8-6.1-2.3-12.4,2.1c-6.3,4.4-6.4,13.5-1.6,22c2.4,4.1,1.9,4.3,1.9,4.3l4-1.4L397.4,157.1z"/>
			</defs>
			<use xlink:href="#SVGID_24_"  style="overflow:visible;fill:#1E2889;"/>
			<clipPath id="SVGID_25_">
				<use xlink:href="#SVGID_24_"  style="overflow:visible;"/>
			</clipPath>
			<path class="st45" d="M371.3,156.9c0,0,2.1,1.7,6.2-0.8s8.8-7.8,18.9-5.7s12.2-0.8,12.2-0.8l-5.3,11.9l-13.4,9.1l-11.3,0.9l-6-4
				L371.3,156.9z"/>
		</g>
		<g>
			<defs>
				<path id="SVGID_26_" d="M400.5,155.7c0,0-3.3,16.7-9.6,17.8c-6.3,1.1-8-8.8-7.9-10.2c0,0-2,0.1-1.9-1.9c0.1-2,2-2.8,3-2.2
					c0,0,2.5-0.6,3.5-2.9s2.3-1.3,3.4-1.3c1,0,1.8,0.4,3.2-0.4c1.4-0.8,3.2-0.1,4.2,0.7C399.5,156,400.5,155.7,400.5,155.7z"/>
			</defs>
			<use xlink:href="#SVGID_26_"  style="overflow:visible;fill:#FFACA6;"/>
			<clipPath id="SVGID_27_">
				<use xlink:href="#SVGID_26_"  style="overflow:visible;"/>
			</clipPath>
			<path class="st46" d="M379.9,163.9c0,0,0.9,1.3,4.5-1.3c3.6-2.6,4.3-5,10-4.3c5.7,0.7,7.7-0.7,7.7-0.7l-0.1-3.4
				c0,0-2.7-2.5-6.6-2.4c-3.9,0.1-9.1,1.1-11.7,1.9c-2.6,0.7-5.8,3.6-5.8,4.8C377.8,159.8,379.9,163.9,379.9,163.9z"/>
		</g>
		<path class="st37" d="M190.2,182c0,0-3.8-1.4-6.7-2.9c-2.9-1.5-4.2-4.6-7.4-5c-3.2-0.4-7.5,7.8-11.2,13.4
			c-3.7,5.5-5.1,11.4-0.3,12.9c4.8,1.5,7.9-8.9,15.3-9.9c7.4-0.9,7.7,0.6,7.7,0.6L190.2,182z"/>
		<g>
			<defs>
				<path id="SVGID_28_" d="M187.7,178.2c0,0,29.4,3.3,43.5,1.9c14.1-1.4,34.9-7.3,48.2-7c13.3,0.3,17.1,1.8,17.1,1.8l-2,22.6
					c0,0-54.8,1.1-64.7-0.2c-10-1.3-42.7-4.9-42.7-4.9S183.7,186.7,187.7,178.2z"/>
			</defs>
			<use xlink:href="#SVGID_28_"  style="overflow:visible;fill:#1E2889;"/>
			<clipPath id="SVGID_29_">
				<use xlink:href="#SVGID_28_"  style="overflow:visible;"/>
			</clipPath>
			<path class="st47" d="M184.6,187.4c0,0,94.6,5.3,110.5,3.3s0,0,0,0l1.4,8.4l-30.2,3.1c0,0-62.8,1.2-64.1,1.2
				c-1.3,0-16.4-3.9-16.4-3.9l-1.7-9.2L184.6,187.4z"/>
		</g>
	</g>
	<path class="st12" d="M563.9,336.5c0,0,2.6-6.5,6.4-13.7c3.8-7.2,6.3-13.4,13.8-9.8c7.5,3.6-7,31.9-7,31.9S568.9,347.2,563.9,336.5
		z"/>
	<circle class="st15" cx="476.2" cy="212.6" r="3.6"/>
	<circle class="st15" cx="495.9" cy="212.6" r="3.6"/>
	<circle class="st15" cx="515.7" cy="212.6" r="3.6"/>
	<g>
		<defs>
			<path id="SVGID_30_" d="M244.7,465l-1.2,2.8c0,0-1.5,7.7,1.2,17c2.7,9.3,6.2,25,1,31.5c-5.2,6.5-37.1,25.2-37.1,25.2
				s0.6,8.6,7.3,9.1c0,0,43.2-20.5,46.6-26.5c3.4-6,9.2-40.4,9.2-40.4s27-2.5,30,2.9s-7.1,41.8-7.1,41.8s8.2,5.2,12.5,0.6
				c0,0,17.1-42,14-54.9c-1.7-7.2-2.5-13.5-31.3-15.8L244.7,465z"/>
		</defs>
		<use xlink:href="#SVGID_30_"  style="overflow:visible;fill:#0542BF;"/>
		<clipPath id="SVGID_31_">
			<use xlink:href="#SVGID_30_"  style="overflow:visible;"/>
		</clipPath>
		<path class="st48" d="M208.6,547.9c0,0,44.9-20.9,48.5-26.6s7.8-46.4,7.8-46.4s37.6-5.3,39.9,12.3s-11.9,34.2-11.9,34.2
			l-68.6,31.9l-11.6,1.6L208.6,547.9z"/>
	</g>
	<g>
		<defs>
			<path id="SVGID_32_" d="M241.5,377.6c0,0,12.9,6.5,15.3,9.8c2.5,3.3,4.4,4.5,4.4,4.5s5,4.8,11.4,0.5c4-0.4,5.5,0.5,8.4-0.9
				c2.9-1.4,10.8-0.2,17,1.4s12.5,3.3,12.5,3.3s1.2,9.5-4.3,17.4l-17.6-1.5c0,0-1.2,36.3,0.6,42.2c1.9,6,1.6,22.4-25.3,23
				c-14.2,0-20.7-5-20.6-11.9c0.1-7,2-18.3,2.7-29.6c0.7-11.3,0.6-28.5,0.6-28.5l-13.8-14.5C232.9,392.8,235,384.4,241.5,377.6z"/>
		</defs>
		<use xlink:href="#SVGID_32_"  style="overflow:visible;fill:#FFAB00;"/>
		<clipPath id="SVGID_33_">
			<use xlink:href="#SVGID_32_"  style="overflow:visible;"/>
		</clipPath>
		<path class="st49" d="M241.9,456.5c0,0,3,2.5,14.4,1.6c11.4-0.9,22.3-8.1,24.3-21.6c2-13.5,5.5-27.3,5.5-27.3l22.7,3.1l-7,13.5
			l-10.8,45.2c0,0-26.6,11.6-27.3,11.6s-21.8-5.3-21.8-5.3c0,0-2-14.3-2-14.3L241.9,456.5z"/>
		<polygon class="st49" points="232.6,390 247.9,406.4 246.6,418.9 240.3,412.8 232.6,395.9 231,392.2 		"/>
	</g>
	<g>
		<defs>
			<path id="SVGID_34_" d="M280,361.2c0,0,4.2,29.2-8.8,21.8c-2.4-1.3-4.8-8.3-4.8-8.3s-3.1,0.1-2.5-4c0.6-4.1,3.7-2.4,4-2.2
				C268,368.4,276.6,366,280,361.2z"/>
		</defs>
		<use xlink:href="#SVGID_34_"  style="overflow:visible;fill:#FFACA6;"/>
		<clipPath id="SVGID_35_">
			<use xlink:href="#SVGID_34_"  style="overflow:visible;"/>
		</clipPath>
		<path class="st50" d="M262.8,371.8c0,0,1.4,1.7,7.3-1.1c5.9-2.9,11.2-7.3,11.2-7.3l-0.7-3.6l-9.7,2.3l-7.8,2.6L262.8,371.8z"/>
	</g>
	<g>
		<defs>
			<path id="SVGID_36_" d="M584.5,292.5c0,0-1.8,6.8-0.3,11.4c0,0-1.8,3.3-8.7,0.8c0,0,1.3-4.9,0.6-9.3L584.5,292.5z"/>
		</defs>
		<use xlink:href="#SVGID_36_"  style="overflow:visible;fill:#FFACA6;"/>
		<clipPath id="SVGID_37_">
			<use xlink:href="#SVGID_36_"  style="overflow:visible;"/>
		</clipPath>
		<path class="st51" d="M575.1,299.6c0,0,7.1-0.7,9.9,2.5l0.3-9.6c0,0-4.7-1.4-5.3-1.4c-0.6,0-5.2-0.7-5.2,0.9
			c0,1.6,0.1,3.9,0.1,3.9L575.1,299.6z"/>
	</g>
	<g>
		<defs>
			<path id="SVGID_38_" d="M570.6,277.3c0,0-6.3,20.2,0.7,20.7c7,0.4,10.7-4,10.7-4s3.7,0.1,4.1-3.7c0.4-3.8-2.8-2.6-2.8-2.6
				s-2.6-1.5-2.3-4.1C581.1,283.6,573.6,282.6,570.6,277.3z"/>
		</defs>
		<use xlink:href="#SVGID_38_"  style="overflow:visible;fill:#FFACA6;"/>
		<clipPath id="SVGID_39_">
			<use xlink:href="#SVGID_38_"  style="overflow:visible;"/>
		</clipPath>
		<path class="st52" d="M568.8,279.3c0,0,1.7,3.7,6.3,5.3c4.6,1.6,7.4,6.8,11.8,5.2l-2.4-5.1c0,0-3-4.2-3.2-4.2s-8.4-3.1-8.4-3.5
			s-2.9-1.9-2.9-1.9L568.8,279.3z"/>
	</g>
	<rect x="615.1" y="407.3" class="st29" width="34.1" height="15.1"/>
	<rect x="628.8" y="422.4" class="st15" width="34.1" height="15.1"/>
	<rect x="43.3" y="329.8" class="st29" width="34.1" height="15.1"/>
	<rect x="57.1" y="344.8" class="st15" width="34.1" height="15.1"/>
	<g>
		<circle class="st53" cx="47.4" cy="264.4" r="46.4"/>
		<circle class="st29" cx="47.4" cy="264.4" r="42.5"/>
		<path class="st54" d="M47.4,265.7c-0.3,0-0.6-0.1-0.9-0.3l-23.1-21c-0.5-0.5-0.6-1.3-0.1-1.9c0.5-0.5,1.3-0.6,1.9-0.1l22.2,20.2
			l17.1-14.9c0.6-0.5,1.4-0.4,1.9,0.1c0.5,0.6,0.4,1.4-0.1,1.9l-18,15.7C48,265.6,47.7,265.7,47.4,265.7z"/>
		<rect x="45.9" y="296.9" class="st54" width="2.8" height="7.3"/>
		<rect x="45.9" y="224.6" class="st54" width="2.8" height="7.3"/>
		
			<rect x="9.7" y="260.8" transform="matrix(-1.836970e-16 1 -1 -1.836970e-16 275.5533 253.2791)" class="st54" width="2.8" height="7.3"/>
		
			<rect x="82.1" y="260.8" transform="matrix(-1.836970e-16 1 -1 -1.836970e-16 347.8854 180.9469)" class="st54" width="2.8" height="7.3"/>
		<line class="st55" x1="47.4" y1="265.3" x2="58.6" y2="299.1"/>
		
			<ellipse transform="matrix(0.1602 -0.9871 0.9871 0.1602 -221.2275 268.8105)" class="st53" cx="47.4" cy="264.4" rx="4.9" ry="4.9"/>
		<circle class="st37" cx="47.4" cy="264.4" r="2.9"/>
	</g>
</g>
</svg>
