<?xml version="1.0" ?><!DOCTYPE svg  PUBLIC '-//W3C//DTD SVG 1.1//EN'  'http://www.w3.org/Graphics/SVG/1.1/DTD/svg11.dtd'><svg enable-background="new 0 0 126 126" id="Layer_1" version="1.1" viewBox="0 0 126 126" xml:space="preserve" xmlns="http://www.w3.org/2000/svg" xmlns:xlink="http://www.w3.org/1999/xlink"><g><g><g><path d="M124.5331,78.007c-0.6772-1.6727-1.9906-3.0104-3.5489-3.9162L65.0346,41.7842L1,79.0025l57.5732,33.2451     h0.0082l1.9331-0.9325c2.798-1.35,5.8627-2.1117,8.9691-2.0698c1.4272,0.0191,2.9262,0.1956,4.2968,0.6609     c4.5687,1.55,15.2968-4.7157,16.7245-10.7365c1.4195-6.0044,14.8318-10.4018,16.2513-10.1979     C108.0533,89.151,128.3022,87.2341,124.5331,78.007z" fill="#F3F6FD"/><g><path d="M44.4188,47.9076l-5.7722,11.8391c-1.1663,1.3729-0.8414,3.4543,0.6865,4.4066l42.6492,27.8543      c1.1811,0.7382,2.7238,0.5536,3.6908-0.4502l3.4982-19.4386L44.4188,47.9076z" fill="#E1E9F4"/><path d="M94.1792,72.4779l-3.207,4.8892c-0.5026,0.5917-0.3626,1.4888,0.2959,1.8992l10.1519,7.1818      c0.509,0.3181,1.1739,0.2386,1.5907-0.194l2.4936-7.6493L94.1792,72.4779z" fill="#E1E9F4"/><path d="M78.2454,85.6724l-3.207,4.8892c-0.5026,0.5917-0.3626,1.4888,0.2959,1.8992l10.1519,7.1818      c0.509,0.3181,1.1739,0.2386,1.5907-0.194l2.4936-7.6493L78.2454,85.6724z" fill="#E1E9F4"/><path d="M49.3151,76.9003c-0.6982-0.1807-3.6702,0.1538-3.6702,0.1538l0.0549-0.0588      c0.0427-0.0466-0.02-0.0838-0.1357-0.0819l-0.2542-1.9076c-0.0872-0.0113-3.3557,0.6868-3.4066,0.7768      c0,0-0.0001,0.0003-0.0003,0.0006c-0.6625,1.3824-1.6203,2.6303-2.8043,3.6804c-0.4275,0.3792-0.8247,0.7853-1.0378,1.1395      c-0.1987,0.332-0.4515,0.6637-0.82,0.9982c-0.442,0.402-1.0915,0.9231-1.8718,1.3696      c-1.5406,0.8772-1.1762,1.4599-1.1145,1.6093c-0.2384,0.2817-0.1118,0.1385-0.3759,0.4245      c-0.5413,0.5736-1.2232,1.3233-2.9726,2.6075c-0.5918,0.4355-0.7795,0.7324-0.7299,0.9303      c-0.0124,0.1888,0.2569,0.3361,0.723,0.3758c0.3055,0.0266,0.6123,0.0569,0.9062,0.0903l0.0048,0.0238      c-0.1996,0.0638-0.3701,0.1435-0.4763,0.2288c-0.1983,0.1563-0.4232,0.3232-0.4232,0.3232      c-1.244,0.8487-0.5496,1.051-0.5496,1.051c0.5969,0.4375,4.6192,0.3436,4.5939-0.3076l0.002-0.0025      c0.2626-0.1319,0.4383-0.4155,0.5522-0.6615c0.7925,0.2129,1.3867,0.4414,1.9443,0.7628h0.0379      c-0.3687,0.3125-0.7147,1.0513-0.3504,0.7299c0.053-0.0501,0.2209-0.3683,0.2739-0.3786      c0.132-0.0137-0.3561,0.5776-0.1744,0.563c0.2323-0.0233,0.1215-0.0275,0.4183-0.4989c0,0,0.0094-0.0044,0.0148-0.0044      c0.0129-0.0022,0.0195,0.0022,0.0196,0.0197c0.0361,0.1202-0.3924,0.5402-0.1627,0.5211c0.0055,0,0.0108,0,0.0182-0.0019      c0.1689-0.0308,0.3357-0.4146,0.429-0.5521c0,0,0.0169-0.0066,0.0299-0.0091c0.1716-0.0293-0.3598,0.4578-0.1307,0.4402      c0.1-0.0832,0.4066-0.2757,0.4539-0.5146c0.0231-0.1188,0.0671-0.1432,0.0908-0.1451c0.0183-0.0025,0.0338,0.0041,0.0317,0.0066      c0.0034,0.0019,0.0844,0.0722,0.0964,0.0944c0.0054,0.042,0.2278,0.11,0.4237,0.0328      c-0.0034-0.0019-0.0452-0.0328-0.1034-0.0635c-0.0599-0.0291-0.1029-0.1694-0.1076-0.176      c-0.0013-0.0047-0.0052-0.0882-0.1294-0.1582c-0.0635-0.031-0.0844-0.0725-0.0883-0.121      c0.0561-0.0197,0.1144-0.0416,0.1799-0.066c-0.3627-0.7365-2.5368-1.4558-2.5287-1.4643      c-0.3223-0.09-0.6343-0.1738-0.9396-0.2529c0.2925-0.1058,0.4651-0.1275,1.4254-0.3607      c0.8397,0.1292,4.4506,0.2703,6.6063,1.5105c0.0216,0,0.0485,0,0.0681,0.0022c-0.093,0.0827,0.0121-0.0016-1.171,0.8047      c0.3059,0.0789,1.2005-0.7199,0.7886-0.2329c-0.2012,0.2354-0.1244,0.3804-0.1558,0.4548      c-0.0109,0.0353,0.0176,0.0397,0.0561,0.0331c0.0054,0,0.0075-0.0025,0.0129-0.0025c0.0555-0.0131,0.1129-0.046,0.1244-0.07      c0.2886-0.6329,0.2184-0.3437,0.297-0.4442c-0.1633,0.3465-0.3361,0.5785-0.1688,0.5452      c0.0074-0.0019,0.0129-0.0019,0.0203-0.0041c0.0555-0.0134,0.113-0.0466,0.1321-0.0728      c0.4143-0.7482,0.3142-0.4661,0.389-0.5671c-0.1581,0.4217-0.4173,0.5498-0.1152,0.4814      c0.2174-0.0537,0.3615-0.6265,0.5049-0.6574c0.0075-0.0022,0.0183-0.0022,0.0216,0c-0.0809,0.2507-0.2643,0.4346-0.09,0.3958      c0.1983-0.0582,0.2746-0.3772,0.3695-0.5167c-0.0006-0.0109,0.0993-0.2948,0.0299-0.3361      c-0.0103-0.0066-0.0163-0.0178-0.0203-0.0309c0.0562-0.0197,0.1144-0.0419,0.1779-0.0638      c-0.3701-0.7343-2.5389-1.4533-2.5307-1.4621c-1.2909-0.3583-2.4499-0.6487-3.5134-0.8378      c0.096-0.1001,2.7167-3.3203,2.7836-3.4212h0.0055c0,0,1.5323-1.3305,1.871-3.0011c0.0437-0.211,0.1619-0.4267,0.325-0.644      c0.2774-0.3764,0.7253-0.9719,1.1089-1.4515c0.3231-0.0219,0.583-0.1451,0.2831-0.3473      c0.1295-0.1516,0.2411-0.2726,0.3225-0.3429c0.9008-0.1848,2.7012,0.0638,3.1972,0.0156      C49.4825,77.7005,49.3151,76.9003,49.3151,76.9003z" fill="#E1E9F4"/><path d="M55.4124,83.5544l-3.207,4.8892c-0.5026,0.5917-0.3626,1.4888,0.2959,1.8992l10.1519,7.1818      c0.509,0.3181,1.1739,0.2386,1.5907-0.194l2.4936-7.6493L55.4124,83.5544z" fill="#E1E9F4"/></g><g><polygon fill="#FDFEFF" points="114.3772,70.2776 77.9325,91.1765 69.2113,86.1412 105.6564,65.2423 105.1328,64.9401       68.6878,85.839 41.4868,70.1344 77.933,49.2347 77.4095,48.9325 40.9633,69.8322 32.2469,64.7995 68.6934,43.8998       68.1699,43.5976 3.8895,80.6739 4.413,80.9766 31.8346,65.0393 40.5509,70.0715 13.1292,86.0088 13.6527,86.3114       41.0745,70.3737 49.871,75.4527 22.4491,91.39 22.8217,91.6052 50.2437,75.6679 59.1157,80.7901 31.6935,96.7279       32.0615,96.9401 59.4836,81.0024 68.2754,86.0787 40.8531,102.0164 41.3766,102.3186 68.799,86.3809 77.5201,91.4162       50.0975,107.3539 50.6211,107.6561 114.9007,70.5798     "/></g></g><g><g><g><g enable-background="new    "><g><path d="M77.0438,62.8606v1.447c0,0.1978-0.1012,0.4001-0.3079,0.5717l-8.5719,7.2921         c-0.6201,0.5322-1.9308,0.6026-2.7181,0.1495l-14.3642-8.2905c-0.3519-0.2066-0.5234-0.4705-0.5234-0.7299l0.0044-1.4425         c-0.0044-0.3256,0.2595-0.6466,0.7697-0.8489l12.5654-4.9919c0.6993-0.277,1.6493-0.2242,2.2519,0.1233l10.3751,5.9901         c0.354,0.2017,0.5233,0.4767,0.5156,0.7491C77.0405,62.8733,77.0438,62.8668,77.0438,62.8606z" fill="#83A1CC"/></g></g></g><g><g enable-background="new    "><g><path d="M77.0451,62.859l-0.0035,1.4466c0,0.1986-0.0992,0.4006-0.3049,0.5744l-8.5731,7.2931         c-0.6205,0.5318-1.9288,0.6028-2.716,0.1491L51.081,64.0292c-0.351-0.2057-0.5248-0.4681-0.5248-0.7304l0.0071-1.4395         c0,0.2588,0.1737,0.5247,0.5212,0.7233l14.3666,8.2931c0.7871,0.4574,2.0955,0.3864,2.7195-0.1454l8.5696-7.2968         C76.9459,63.2596,77.0451,63.0612,77.0451,62.859z" fill="#83A1CC"/></g><g><path d="M76.5233,62.1289c0.6044,0.3489,0.6954,0.8992,0.2171,1.3057l-8.5715,7.2942         c-0.622,0.532-1.9303,0.6025-2.7181,0.1477l-14.3656-8.294c-0.7878-0.4548-0.6702-1.2129,0.2462-1.5749l12.5647-4.9888         c0.7001-0.2784,1.6504-0.2274,2.2548,0.1215L76.5233,62.1289z" fill="#B6CBEA"/></g></g></g></g><g><g enable-background="new    "><g><polygon fill="#83A1CC" points="69.7522,49.7253 69.7522,65.9025 68.2629,66.7681 68.2629,50.5908       "/></g><g><polygon fill="#9EB5DF" points="68.2629,50.5908 68.2629,66.7681 59.3395,61.6161 59.3395,45.4388       "/></g><g><polygon fill="#F9D5B4" points="69.0075,49.4101 67.5182,50.2756 58.5948,45.1237 60.0841,44.2582       "/></g></g></g><g><g><g><g><g enable-background="new    "><g><path d="M89.4128,40.2054l-0.0733,31.2179c-0.0029,0.4601-0.1641,0.7825-0.4249,0.9349l-1.2248,0.7119           c-0.2667,0.1641-0.6388,0.1465-1.049-0.0909L45.5157,49.236c-0.7999-0.4659-1.4504-1.5911-1.4475-2.5141l0.0762-31.2181           c0-0.4863,0.1817-0.8204,0.4718-0.9582c-0.0176,0.0059-0.0352,0.0147-0.0498,0.0235l1.2395-0.718           c0.2667-0.1552,0.63-0.1318,1.0344,0.0997l41.1251,23.7432C88.7682,38.1571,89.4158,39.2823,89.4128,40.2054z" fill="#83A1CC"/></g><g><path d="M88.1734,40.927l-0.0747,31.2178c0,0.9236-0.6553,1.2975-1.4558,0.8356L45.5162,49.2351           c-0.8004-0.4662-1.4514-1.5922-1.447-2.5113l0.0748-31.2178c0-0.9236,0.6553-1.2975,1.4557-0.8356l41.1266,23.7453           C87.5269,38.8777,88.1778,40.0036,88.1734,40.927z" fill="#B6CBEA"/><g><path d="M85.0396,68.9764c-0.4277-0.2468-0.7754-0.0486-0.7768,0.4428s0.344,1.0897,0.7717,1.3366            c0.4277,0.2469,0.7754,0.0489,0.7768-0.4426C85.8128,69.8218,85.4674,69.2235,85.0396,68.9764z" fill="#83A1CC"/><path d="M82.3545,67.426c-0.4277-0.2469-0.7754-0.0487-0.7768,0.4428            c-0.0014,0.4915,0.344,1.0897,0.7717,1.3366c0.4277,0.2468,0.7754,0.0489,0.7768-0.4426            C83.1276,68.2714,82.7822,67.6732,82.3545,67.426z" fill="#83A1CC"/><path d="M79.6693,65.8757c-0.4277-0.2468-0.7754-0.0486-0.7768,0.4428            c-0.0014,0.4915,0.344,1.0897,0.7717,1.3366c0.4277,0.2468,0.7754,0.0489,0.7768-0.4426S80.0971,66.1228,79.6693,65.8757z            " fill="#83A1CC"/></g><polygon fill="#6B9EF9" points="45.6807,16.4948 45.6068,44.4755 86.562,68.1218 86.6359,40.141          "/></g></g></g></g></g></g><g><g><path d="M74.2123,36.6803c1.0798,0.6234,1.9519,2.1339,1.9483,3.3748       c-0.0035,1.2407-0.8812,1.7409-1.9611,1.1175c-1.0798-0.6234-1.9519-2.1339-1.9484-3.3746       C72.2547,36.557,73.1325,36.0568,74.2123,36.6803z" fill="#FFFFFF"/></g><g><path d="M74.1918,43.9307c1.0798,0.6234,1.9519,2.1339,1.9483,3.3748       c-0.0035,1.2407-0.8812,1.7409-1.9611,1.1175c-1.0798-0.6234-1.9519-2.1339-1.9484-3.3746       C72.2342,43.8074,73.112,43.3073,74.1918,43.9307z" fill="#FFFFFF"/></g><g><path d="M76.2267,44.357c0.3968,0.2291,0.721,0.7869,0.7197,1.2466l-0.0123,4.3278       c-0.0013,0.4597-0.3276,0.6456-0.7244,0.4165l-4.0916-2.3623c-0.4-0.231-0.721-0.7906-0.7197-1.2502l0.0123-4.3278       c0.0013-0.4597,0.3244-0.6438,0.7244-0.4128L76.2267,44.357z M74.179,48.423c1.0798,0.6234,1.9576,0.1233,1.9611-1.1175       c0.0035-1.2409-0.8685-2.7513-1.9483-3.3748c-1.0798-0.6234-1.9576-0.1233-1.9611,1.1176       C72.2271,46.2891,73.0992,47.7995,74.179,48.423" fill="#1E72C6"/></g><g><path d="M76.2473,37.1065c0.3968,0.2291,0.721,0.7867,0.7197,1.2466l-0.0123,4.3315       c-0.0013,0.456-0.3276,0.6419-0.7244,0.4128l-4.0916-2.3623c-0.4-0.231-0.721-0.7906-0.7197-1.2466l0.0123-4.3315       c0.0013-0.4599,0.3244-0.6438,0.7244-0.4128L76.2473,37.1065z M74.1996,41.1725c1.0798,0.6234,1.9576,0.1233,1.9611-1.1175       c0.0035-1.2409-0.8685-2.7514-1.9484-3.3748c-1.0798-0.6234-1.9576-0.1233-1.9611,1.1177       C72.2477,39.0386,73.1198,40.5491,74.1996,41.1725" fill="#A0533F"/></g><g><path d="M69.8138,45.418l-0.0102,3.1125c0,0.3465-0.2496,0.4838-0.5501,0.3107l-7.8248-4.5186l0.0153-4.3657       l7.8248,4.5186C69.5692,44.6487,69.8138,45.0715,69.8138,45.418z" fill="#A6C2FF"/></g><g><path d="M69.2279,46.6354c-0.0051,0.9069-0.647,1.2686-1.4315,0.8151       c-0.7845-0.4535-1.4212-1.5536-1.4212-2.4553c0.0051-0.9069,0.6419-1.2736,1.4314-0.8151       C68.5911,44.6283,69.2279,45.7337,69.2279,46.6354z" fill="#FFFFFF"/></g><g><path d="M67.8039,44.8024c0.4859,0.2806,0.8801,0.9633,0.8785,1.5216       c-0.0016,0.5619-0.3983,0.788-0.8842,0.5074c-0.489-0.2823-0.8831-0.965-0.8815-1.5269       C66.9183,44.7463,67.3149,44.5201,67.8039,44.8024z" fill="#4C4A8B"/></g><g><path d="M68.4051,38.3993l-0.0102,3.1125c0,0.3465-0.2496,0.4838-0.5502,0.3107l-7.8248-4.5186l0.0153-4.3657       l7.8248,4.5186C68.1605,37.6299,68.4051,38.0528,68.4051,38.3993z" fill="#A6C2FF"/></g><g><path d="M67.8192,39.6166c-0.0051,0.9069-0.647,1.2686-1.4315,0.8151       c-0.7845-0.4535-1.4212-1.5536-1.4212-2.4553c0.0051-0.9069,0.6419-1.2736,1.4314-0.8151       C67.1825,37.6095,67.8192,38.7149,67.8192,39.6166z" fill="#FFFFFF"/></g><g><path d="M66.3952,37.7837c0.4859,0.2806,0.8801,0.9633,0.8785,1.5216       c-0.0016,0.5619-0.3983,0.788-0.8842,0.5074c-0.489-0.2823-0.8831-0.965-0.8815-1.5269       C65.5096,37.7275,65.9062,37.5014,66.3952,37.7837z" fill="#4C4A8B"/></g><g><path d="M66.9964,31.3805l-0.0102,3.1125c0,0.3465-0.2496,0.4838-0.5502,0.3107l-7.8248-4.5186l0.0153-4.3657       l7.8248,4.5186C66.7518,30.6111,66.9964,31.034,66.9964,31.3805z" fill="#A6C2FF"/></g><g><path d="M66.4105,32.5978c-0.0051,0.9069-0.647,1.2686-1.4315,0.8151       c-0.7845-0.4535-1.4212-1.5536-1.4212-2.4553c0.0051-0.9069,0.6419-1.2736,1.4314-0.8151       C65.7738,30.5907,66.4105,31.6962,66.4105,32.5978z" fill="#FFFFFF"/></g><g><path d="M64.9865,30.7649c0.4859,0.2806,0.8801,0.9633,0.8785,1.5216       c-0.0016,0.5619-0.3983,0.788-0.8842,0.5074c-0.489-0.2823-0.8831-0.965-0.8815-1.5269       C64.1009,30.7087,64.4976,30.4826,64.9865,30.7649z" fill="#4C4A8B"/></g><g><path d="M71.0912,51.5655c0.2992,0.1728,0.5391,0.5883,0.5382,0.9283l-0.0091,3.2215       c-0.001,0.3402-0.2424,0.4778-0.5417,0.3051l-3.0378-1.7539c-0.296-0.1709-0.5359-0.5864-0.5349-0.9266l0.0091-3.2215       c0.001-0.34,0.2424-0.4777,0.5384-0.3068L71.0912,51.5655z" fill="#1E72C6"/></g><g><path d="M65.6237,48.4089c0.296,0.1709,0.5359,0.5864,0.5349,0.9264l-0.0091,3.2215       c-0.001,0.3402-0.2424,0.4778-0.5384,0.307L62.57,51.1081c-0.296-0.1709-0.5359-0.5864-0.5349-0.9266l0.0091-3.2215       c0.001-0.34,0.2424-0.4776,0.5384-0.3068L65.6237,48.4089z" fill="#1E72C6"/></g><g><polygon fill="#DEE7F8" points="79.9719,40.2003 79.9705,40.7048 78.7476,39.9987 78.749,39.4943      "/></g><g><polygon fill="#DEE7F8" points="80.8728,41.9219 80.8713,42.4266 78.7442,41.1985 78.7456,40.6938      "/></g><g><polygon fill="#DEE7F8" points="83.9006,44.8755 83.8992,45.3763 82.5982,44.6252 82.5997,44.1243      "/></g><g><polygon fill="#DEE7F8" points="79.669,43.6341 79.6676,44.1385 78.7374,43.6015 78.7388,43.097      "/></g><g enable-background="new    "><g><polygon fill="#DEE7F8" points="81.5815,44.7382 81.5801,45.2427 79.9505,44.3019 79.952,43.7974       "/></g><g><polygon fill="#DEE7F8" points="82.3329,43.9703 82.3315,44.4712 78.7408,42.398 78.7422,41.8972       "/></g><g><polygon fill="#DEE7F8" points="83.9041,43.6721 83.9026,44.1767 81.4112,42.7383 81.4126,42.2336       "/></g></g><g><polygon fill="#DEE7F8" points="82.2487,41.5148 82.2473,42.0193 80.3348,40.9151 80.3362,40.4107      "/></g><g><polygon fill="#DEE7F8" points="83.9075,42.4725 83.906,42.977 82.6668,42.2615 82.6683,41.7571      "/></g><g><polygon fill="#DEE7F8" points="83.8972,46.0752 83.8958,46.5797 81.9541,45.4586 81.9555,44.9541      "/></g><g><polygon fill="#DEE7F8" points="80.8522,49.1724 80.8508,49.6771 78.7236,48.4489 78.725,47.9443      "/></g><g><polygon fill="#DEE7F8" points="79.9514,47.4508 79.95,47.9553 78.727,47.2492 78.7284,46.7447      "/></g><g><polygon fill="#DEE7F8" points="79.6485,50.8809 79.647,51.3853 78.7168,50.8483 78.7182,50.3438      "/></g><g><polygon fill="#DEE7F8" points="81.5609,51.985 81.5595,52.4895 79.93,51.5487 79.9314,51.0442      "/></g><g><polygon fill="#DEE7F8" points="82.3124,51.2172 82.311,51.7216 78.7202,49.6485 78.7216,49.144      "/></g><g><polygon fill="#DEE7F8" points="82.2281,48.7653 82.2267,49.2697 80.3143,48.1656 80.3157,47.6611      "/></g><g><polygon fill="#DEE7F8" points="83.8869,49.7229 83.8855,50.2274 82.6463,49.512 82.6477,49.0075      "/></g><g><polygon fill="#DEE7F8" points="83.8767,53.322 83.8753,53.8265 81.9335,52.7054 81.9349,52.201      "/></g><g><polygon fill="#DEE7F8" points="83.8801,52.1223 83.8787,52.6267 82.5777,51.8756 82.5791,51.3711      "/></g><g><polygon fill="#DEE7F8" points="83.8835,50.9225 83.8821,51.4272 81.3906,49.9888 81.3921,49.4841      "/></g><g><path d="M76.5618,54.724c0.296,0.1709,0.5359,0.5864,0.5349,0.9264l-0.0091,3.2215       c-0.001,0.3402-0.2424,0.4778-0.5384,0.307l-3.041-1.7557c-0.296-0.1709-0.5359-0.5864-0.535-0.9267l0.0091-3.2215       c0.001-0.34,0.2424-0.4776,0.5385-0.3067L76.5618,54.724z" fill="#1E72C6"/></g><g><path d="M82.0293,57.8806c0.296,0.1709,0.5359,0.5864,0.5349,0.9264l-0.0091,3.2215       c-0.001,0.3402-0.2424,0.4778-0.5384,0.307l-3.0411-1.7558c-0.296-0.1709-0.5359-0.5864-0.5349-0.9267l0.0091-3.2215       c0.001-0.34,0.2424-0.4776,0.5384-0.3068L82.0293,57.8806z" fill="#1E72C6"/></g></g><g><g enable-background="new    "><g><path d="M56.5021,25.8587l-0.0226,7.7614c0,0.224-0.0806,0.3827-0.209,0.4583l-0.8864,0.5162        c0.1284-0.0755,0.2065-0.2342,0.2065-0.4583l0.0227-7.7614c0.0025-0.4557-0.3173-1.0073-0.7127-1.2364l-6.754-3.8983        c-0.199-0.1158-0.3777-0.1259-0.5087-0.0504l0.889-0.5162c0.1284-0.0756,0.3097-0.063,0.5062,0.0503l6.754,3.9009        C56.1823,24.8513,56.5021,25.4054,56.5021,25.8587z" fill="#A6C2FF"/></g><g><path d="M54.9003,25.1395c0.3955,0.2284,0.7144,0.7807,0.7132,1.2352l-0.022,7.7615        c-0.0013,0.4527-0.3223,0.6356-0.7178,0.4072l-6.7545-3.8997c-0.3939-0.2274-0.7129-0.7798-0.7116-1.2325l0.022-7.7615        c0.0013-0.4545,0.3223-0.6374,0.7162-0.41L54.9003,25.1395z" fill="#DEE7F8"/></g><g><polygon fill="#1E72C6" points="49.9588,24.2076 53.8246,29.4122 49.942,30.1411       "/></g></g></g><g><g enable-background="new    "><g><path d="M58.1351,38.9625l-0.0226,7.7614c0,0.224-0.0806,0.3827-0.209,0.4583l-0.8864,0.5162        c0.1284-0.0755,0.2065-0.2342,0.2065-0.4583l0.0227-7.7614c0.0025-0.4557-0.3173-1.0073-0.7127-1.2364l-6.754-3.8983        c-0.199-0.1158-0.3777-0.1259-0.5087-0.0504l0.889-0.5162c0.1284-0.0756,0.3097-0.063,0.5062,0.0503l6.754,3.9009        C57.8153,37.9552,58.1351,38.5092,58.1351,38.9625z" fill="#A6C2FF"/></g><g><path d="M56.5333,38.2433c0.3955,0.2284,0.7144,0.7807,0.7132,1.2352l-0.022,7.7615        c-0.0013,0.4527-0.3223,0.6356-0.7178,0.4072l-6.7545-3.8997c-0.3939-0.2274-0.7129-0.7798-0.7116-1.2325l0.022-7.7615        c0.0013-0.4545,0.3223-0.6374,0.7162-0.41L56.5333,38.2433z" fill="#DEE7F8"/></g></g><g><path d="M54.9343,42.0865l0.4357,0.5071l-0.1172,0.4944l-0.49-0.281       c-0.0987,0.1802-0.2316,0.3127-0.3921,0.3936l0.1493,0.6232l-0.4272,0.0561l-0.3473-0.5978       c-0.1914-0.0313-0.3956-0.106-0.6053-0.2271c-0.0172-0.0099-0.0345-0.0202-0.0518-0.0308l-0.2234,0.3743l-0.488-0.4158       l-0.0009-0.5645c-0.2049-0.2292-0.3862-0.4881-0.5365-0.7581l-0.4671-0.0961l-0.2616-0.6418L51.457,40.72       c-0.0739-0.2799-0.1108-0.5577-0.1034-0.8147l-0.4365-0.5075l0.118-0.494l0.49,0.281c0.097-0.1812,0.2316-0.3127,0.3913-0.394       l-0.1493-0.6232l0.4272-0.0561l0.3482,0.5982c0.1909,0.0308,0.3961,0.1054,0.6048,0.2259       c0.0168,0.0097,0.0337,0.0197,0.0506,0.03l0.2251-0.3724l0.4872,0.4143l0.0009,0.5655       c0.2049,0.2292,0.3863,0.4872,0.5365,0.7581l0.4679,0.0966l0.2608,0.6413L54.83,41.2714       C54.9039,41.5512,54.9401,41.8276,54.9343,42.0865z M54.0187,41.7406c0.0565-0.2369,0.0184-0.5375-0.107-0.8457       c-0.1254-0.3076-0.3231-0.5869-0.5571-0.7855c-0.07-0.0597-0.1408-0.11-0.2111-0.1506       c-0.1645-0.095-0.3263-0.1364-0.4698-0.1175c-0.2047,0.0269-0.3489,0.1724-0.4054,0.4093       c-0.0565,0.2369-0.0184,0.5374,0.107,0.845c0.1249,0.3079,0.3231,0.5869,0.5571,0.7861       c0.0697,0.0597,0.1401,0.1094,0.2104,0.15c0.1644,0.0949,0.3261,0.1358,0.4704,0.1181       C53.8186,42.1232,53.9628,41.9778,54.0187,41.7406" fill="#4C4A8B"/></g></g><g><g><g><g><path d="M50.2243,41.1441c-0.0483-0.0109-0.0928,0.0294-0.0986,0.0917         c-0.0219,0.2706-0.0907,1.1488-0.1185,1.2259c-0.0158,0.0453-0.0276,0.0549-0.0356,0.0531         c-0.0082-0.0019-0.012-0.0153-0.0122-0.016c0.0027-0.0444,0.0549-0.8878,0.0673-1.0228         c0.0127-0.1381,0.0153-0.1984-0.1234-0.2362c-0.1391-0.0315-0.1713,1.2206-0.1849,1.3359         c-0.0143,0.0729-0.0381,0.0894-0.0559,0.0854c-0.0099-0.0022-0.0179-0.0108-0.0213-0.0196         c-0.0073-0.0176,0.0346-0.8284,0.0209-0.9372c-0.01-0.0633-0.0384-0.0977-0.0707-0.105         c-0.022-0.005-0.0458,0.0027-0.0669,0.0226c-0.0516,0.046-0.0977,1.0961-0.0968,1.1187         c0.0003,0.0289,0.0054,0.7478,0.0838,0.9256c0.0782,0.1811,0.0749,0.7069,0.0747,0.7346l0.744,0.1875         c0.0128-0.3654,0.0669-0.632,0.2453-0.7999c0.1763-0.1779,0.2431-0.385,0.2467-0.3959         c0.0078-0.0187,0.1559-0.3748,0.2397-0.4488c0.0838-0.0739,0.1474-0.1539,0.1508-0.1581         c-0.0336-0.0519-0.0744-0.0787-0.1177-0.0885c-0.147-0.0333-0.322,0.1303-0.3372,0.1716         c-0.0287,0.0543-0.1603,0.2315-0.1673,0.2408c-0.0009,0.001-0.0186,0.0208-0.0355,0.017         c-0.0263-0.006-0.0482-0.0716,0.0115-0.3685c0.1044-0.4921-0.0145-0.9708-0.0123-1.1561         c0.0023-0.0892-0.0268-0.1277-0.061-0.1419c-0.0029-0.001-0.0059-0.0018-0.0088-0.0025         c-0.0482-0.0109-0.0912,0.0284-0.0939,0.0881c-0.0059,0.2262-0.0308,0.8837-0.0563,0.9678         c-0.0115,0.0478-0.0269,0.0575-0.0399,0.0546c-0.0141-0.0032-0.0248-0.0205-0.0254-0.0214         c0.0041-0.0556,0.0814-1.1125,0.0294-1.3198c-0.0108-0.044-0.0322-0.0681-0.0581-0.0771         C50.235,41.1471,50.2296,41.1453,50.2243,41.1441z" fill="#ECB4BF"/></g><path d="M42.6051,50.2379c1.2446-0.4819,2.6646-1.2256,4.2767-2.1463        c-0.0072-0.0183,2.7414-1.8419,3.657-3.7016c-0.577-0.7284-0.7908-0.7274-1.0884-0.7122        c-1.1947,1.2076-2.3429,1.897-4.1164,2.7305c-0.4457,0.2063-2.0766,0.7546-3.6788,1.0791        c-0.592,0.1177-1.0156,0.6182-1.0573,1.2171C40.5267,49.7871,41.6413,50.6113,42.6051,50.2379z" fill="#1E72C6"/></g><g><g><path d="M45.9206,74.6152c-0.7667,0.7327-2.6714,0.8196-2.6714,0.8196v0.0869         c0,0.1156-0.0868,0.2411-0.1881,0.2698l-1.0367,0.1062c-0.1012,0.029-0.1495-0.0483-0.1639-0.1639         c-0.0531-0.5208-0.0916-1.1572-0.0434-1.331c0.0675-0.2218,0.5208,0.5305,1.5238-0.5255         c0.8053,0.2458,1.8661-0.024,2.3194-0.1735C46.1617,73.5397,46.6921,73.8773,45.9206,74.6152z" fill="#2A2A5E"/></g><g><g><g><g><g><g><path d="M44.0256,67.0879c-0.1543,0.5255-0.2411,1.0656-0.2845,1.6154              c-0.1157,1.5721-0.3279,4.6485-0.2652,5.3861c-0.3134,0.5305-0.9114,0.6027-1.6443,0.4532              c0,0-0.8149-3.6405-0.4822-6.1914c0.1109-0.8295,0.1688-1.6637,0.1061-2.4979              c-0.0723-1.0127-0.2411-2.3145-0.6172-3.4331c-0.7426-2.1989,0.1784-3.66,0.3809-4.0361l3.7226,1.1862              C44.9417,59.5705,45.2503,62.8976,44.0256,67.0879z" fill="#3A3A77"/></g><path d="M48.8765,77.3829c-0.8824,0.4532-3.1391-0.1349-3.1391-0.1349v0.1493             c0,0.1158-0.1013,0.2074-0.217,0.2025l-1.1862-0.0914c-0.1158-0.0049-0.1977-0.1062-0.1832-0.222             c0.0482-0.4483,0.1688-1.485,0.2266-1.6394c0.0772-0.1928,0.4195,0.4149,1.5671-0.2701             c0.733,0.4725,2.112,0.9837,2.628,1.003C49.1465,76.3942,49.7541,76.9247,48.8765,77.3829z" fill="#2A2A5E"/><g><path d="M46.5378,68.4236c-0.1543,0.5305-0.2411,1.0706-0.2797,1.6154              c-0.1205,1.5719-0.3327,4.6485-0.27,5.3908c-0.3134,0.5305-0.9114,0.6027-1.6443,0.4535              c0,0-0.7956-3.5586-0.4918-6.1047c0.1061-0.9065,0.1736-1.813,0.0868-2.7244              c-0.0964-1.0656-0.3038-2.4159-0.7619-3.4959c-0.8728-2.0639-0.2893-4.1566-0.082-4.5279l4.3591,1.8758              C47.454,60.9062,47.7674,64.238,46.5378,68.4236z" fill="#4C4A8B"/></g><g><path d="M42.4634,48.4701c0.5943-0.6862,0.5532-1.5945,0.5532-1.5945l0.6568-1.7587              c0,0,3.0132-1.5919,3.5393-1.2944c0.5583,0.3158-0.1844,2.9279-0.1844,2.9279c-0.056,0.6035-0.319,0.8111-0.319,0.8111              l-1.3019,0.5934l-0.3634,0.9919C45.044,49.1467,41.8691,49.1563,42.4634,48.4701z" fill="#ECB4BF"/></g></g></g><path d="M47.7057,51.0042c-0.0702-0.3832-0.1731-0.7339-0.3133-0.9444           c-0.0935-0.1356-0.2058-0.2525-0.3367-0.3507l-0.9038-0.6779c-0.3078-0.2309-0.5124-0.5736-0.5693-0.9542           c0,0-2.1231,0.1918-2.5674-1.0709l-0.1964,0.4722c-0.5659-0.0653-2.7685-0.1169-2.1558,3.3109           c0.5705,3.2173,0.5611,5.0929,0.5705,6.5333c0,0.7152,0.0094,0.3599-0.014,1.0659           c-0.0935,2.7547,6.2337,2.5209,6.2337,2.5209c0.1076-1.0243,0.1263-5.5277,0.3227-7.3891           C47.8647,52.683,47.8647,51.8322,47.7057,51.0042z" fill="#1E72C6"/></g></g></g></g><g><g><path d="M56.0221,43.1391c0.0456,0.0348,0.0763,0.1172,0.0674,0.1847         c-0.0413,0.2904-0.1774,1.231-0.1699,1.3342c0.0039,0.0601,0.0123,0.0809,0.0199,0.0867         c0.0078,0.0059,0.0142-0.0038,0.0142-0.0038c0.0079-0.0474,0.151-0.9375,0.1703-1.0838         c0.0197-0.1497,0.031-0.2122,0.1634-0.1186c0.1314,0.1003-0.1215,1.3789-0.1353,1.5067         c-0.0036,0.0862,0.014,0.1252,0.0307,0.138c0.0093,0.0071,0.0184,0.0061,0.0234,0.0006         c0.0105-0.0107,0.1554-0.8586,0.1921-0.9541c0.0232-0.0536,0.0563-0.061,0.0868-0.0378         c0.0208,0.0159,0.0404,0.046,0.0547,0.0858c0.0358,0.0947-0.1593,1.1851-0.1651,1.2068         c-0.0068,0.0285-0.173,0.7403-0.2831,0.8434c-0.1106,0.1065-0.2259,0.6338-0.232,0.6616l-0.707-0.5173         c0.0707-0.3764,0.0823-0.6934-0.0392-1.0295c-0.1175-0.3442-0.1307-0.614-0.1313-0.6282         c-0.0028-0.0261-0.055-0.5211-0.1132-0.6743c-0.0583-0.1529-0.0971-0.293-0.0992-0.3003         c0.0417-0.0199,0.0842-0.008,0.1251,0.0232c0.1388,0.106,0.2584,0.4347,0.2627,0.4902         c0.0134,0.0813,0.0912,0.3825,0.0953,0.3983c0.0006,0.0019,0.012,0.0384,0.0279,0.0506         c0.0248,0.019,0.0592-0.0257,0.0726-0.3783c0.0174-0.5894,0.2313-0.954,0.2711-1.1408         c0.018-0.0911,0.0526-0.102,0.0864-0.0837c0.0029,0.0018,0.0056,0.0037,0.0084,0.0058         c0.0455,0.0348,0.0751,0.1146,0.0641,0.1767c-0.0456,0.2311-0.1713,0.9101-0.1674,1.018         c-0.0005,0.0585,0.0111,0.0828,0.0233,0.0922c0.0134,0.0102,0.0268,0.0031,0.0275,0.0027         c0.0089-0.0593,0.1775-1.186,0.2706-1.3435c0.0195-0.0336,0.0441-0.0374,0.0692-0.0219         C56.0119,43.1319,56.0171,43.1353,56.0221,43.1391z" fill="#ECB4BF"/></g><path d="M47.7572,52.3599c1.2833-0.4776,2.7631-1.2146,4.4491-2.127        c-0.0057-0.0181,2.8894-1.8252,3.9544-3.6682c-0.5185-0.7218-0.7323-0.7209-1.0312-0.7058        c-1.2917,1.1967-2.4953,1.8799-4.3358,2.7058c-0.4623,0.2045-2.1373,0.7478-3.7654,1.0694        c-0.6015,0.1167-1.0653,0.6126-1.155,1.2061C45.715,51.9132,46.7634,52.73,47.7572,52.3599z" fill="#1E72C6"/></g></g><g><g><g><g><g><path d="M42.9531,43.2098c1.0359-1.1097,4.4182-0.7473,4.4664,0.3465           c0.0278,0.6292-0.4781,0.984-0.8254,1.2397c-0.121,0.0891-0.1912,0.2229-0.1952,0.3652           c-0.0108,0.3786,0.0271,0.6968,0.0271,0.6968l-0.2324,0.2487c-0.0613-0.415-0.1289-0.6373-0.1992-0.7755           c-0.0258-0.0511-0.096-0.0628-0.1406-0.0245c-0.2026,0.1731-0.3371,0.4088-0.3713,0.666           c-0.0408,0.3061-0.0634,0.8259,0.1081,1.2939c0.1033,0.2821-0.1033,0.5713-0.4265,0.593           c-0.6473,0.0438-1.2071-0.0602-1.8895-0.3782c-0.3447-0.1606-0.5737-0.476-0.6241-0.8281           c-0.0556-0.3884-0.1243-0.8102-0.1243-0.8102C42.0543,43.7167,42.9531,43.2098,42.9531,43.2098z" fill="#A0533F"/></g></g></g></g></g></g></g><g><g><path d="M105.5042,68.3601l-0.0282,9.6658c0,0.279-0.1004,0.4765-0.2603,0.5707l-1.1039,0.6429      c0.16-0.094,0.2572-0.2917,0.2572-0.5707l0.0282-9.6658c0.0031-0.5675-0.3952-1.2545-0.8875-1.5397l-8.4112-4.8548      c-0.2478-0.1443-0.4704-0.1568-0.6335-0.0628l1.1071-0.6429c0.1599-0.0942,0.3857-0.0784,0.6304,0.0626l8.4112,4.858      C105.1059,67.1056,105.5042,67.7956,105.5042,68.3601z" fill="#6B9EF9"/></g><g><path d="M103.5094,67.4644c0.4926,0.2844,0.8897,0.9723,0.8881,1.5383l-0.0274,9.6658      c-0.0016,0.5637-0.4014,0.7915-0.8939,0.5072l-8.4118-4.8566c-0.4906-0.2832-0.8878-0.9712-0.8862-1.5349l0.0274-9.6658      c0.0016-0.566,0.4014-0.7938,0.892-0.5105L103.5094,67.4644z" fill="#1E72C6"/></g><g><polygon fill="#DEE7F8" points="100.2628,73.4659 100.2599,74.5007 95.8491,71.9542 95.8521,70.9193     "/></g><g><polygon fill="#DEE7F8" points="103.2178,72.7334 103.2149,73.7682 95.8491,69.5156 95.8521,68.4808     "/></g><g><polygon fill="#DEE7F8" points="103.2178,70.2949 103.2149,71.3297 95.8491,67.0771 95.8521,66.0423     "/></g></g><g><g><path d="M89.5704,81.5817l-0.0282,9.6658c0,0.279-0.1004,0.4766-0.2603,0.5707l-1.1039,0.6429      c0.16-0.094,0.2572-0.2917,0.2572-0.5707l0.0282-9.6658c0.0031-0.5675-0.3952-1.2545-0.8875-1.5398L79.1646,75.83      c-0.2478-0.1442-0.4704-0.1568-0.6335-0.0628l1.1071-0.6429c0.16-0.0942,0.3857-0.0784,0.6304,0.0626l8.4112,4.858      C89.1722,80.3272,89.5704,81.0172,89.5704,81.5817z" fill="#6B9EF9"/></g><g><path d="M87.5757,80.686c0.4926,0.2844,0.8897,0.9723,0.8881,1.5383l-0.0274,9.6658      c-0.0016,0.5637-0.4014,0.7915-0.8939,0.5072l-8.4118-4.8566c-0.4906-0.2832-0.8878-0.9712-0.8862-1.5349l0.0274-9.6658      c0.0016-0.566,0.4014-0.7938,0.892-0.5105L87.5757,80.686z" fill="#1E72C6"/></g><g><polygon fill="#DEE7F8" points="79.2455,81.9997 81.7175,85.3263 81.7199,84.4814 79.9226,82.0988 81.7275,81.7996       81.7298,80.955 79.2471,81.4208     "/><polygon fill="#DEE7F8" points="82.201,86.2101 82.7486,86.5265 84.2162,81.7854 83.6576,81.463     "/><polygon fill="#DEE7F8" points="84.6887,82.6634 84.6863,83.508 86.4946,85.8929 84.6786,86.1898 84.6763,87.0347       87.159,86.577 87.1607,85.9772     "/></g></g><g><g><path d="M66.7603,79.4637l-0.0282,9.6658c0,0.279-0.1004,0.4766-0.2603,0.5707l-1.1039,0.6429      c0.1599-0.094,0.2572-0.2917,0.2572-0.5707l0.0282-9.6658c0.0031-0.5675-0.3952-1.2545-0.8875-1.5398l-8.4112-4.8548      c-0.2478-0.1442-0.4704-0.1568-0.6335-0.0628l1.1071-0.6429c0.1599-0.0942,0.3857-0.0784,0.6304,0.0626l8.4112,4.858      C66.3621,78.2092,66.7603,78.8992,66.7603,79.4637z" fill="#6B9EF9"/></g><g><path d="M64.7655,78.568c0.4926,0.2844,0.8897,0.9723,0.8881,1.5383l-0.0274,9.6658      c-0.0016,0.5637-0.4014,0.7915-0.8939,0.5072l-8.4118-4.8566c-0.4906-0.2832-0.8878-0.9712-0.8862-1.5349l0.0274-9.6658      c0.0016-0.566,0.4014-0.7938,0.892-0.5105L64.7655,78.568z" fill="#1E72C6"/></g><g><g enable-background="new    "><g><path d="M60.5284,81.9345c0.6596,0.3808,1.2786,1.0386,1.7398,1.8374c0.1096,0.1898,0.109,0.4022-0.0013,0.472        c-0.0582,0.0297-0.132,0.0187-0.2057-0.0238c-0.0737-0.0426-0.1473-0.1167-0.2051-0.2133        c-0.3546-0.6142-0.8415-1.1001-1.329-1.3815c-0.4875-0.2815-0.9756-0.3585-1.3325-0.1551        c-0.0582,0.0262-0.1332,0.0163-0.2032-0.0242c-0.0749-0.0432-0.1509-0.1206-0.2075-0.213        c-0.1096-0.1968-0.109-0.4092,0.0013-0.472C59.2553,81.5,59.8687,81.5537,60.5284,81.9345z" fill="#DEE7F8"/></g><g><path d="M60.5334,80.3791c0.926,0.5346,1.8509,1.475,2.5548,2.6941c0.1144,0.1995,0.1138,0.405-0.0013,0.472        c-0.0558,0.031-0.1299,0.0199-0.2037-0.0227c-0.0739-0.0426-0.1475-0.1168-0.2023-0.2117        c-0.5913-1.0241-1.3702-1.8152-2.1492-2.265c-0.7791-0.4498-1.5584-0.5584-2.1505-0.2175        c-0.0582,0.0331-0.1332,0.0232-0.2081-0.02c-0.0749-0.0433-0.1449-0.1171-0.2027-0.2171        c-0.1156-0.2003-0.115-0.4057,0.0013-0.472C58.6801,79.7154,59.6073,79.8444,60.5334,80.3791z" fill="#DEE7F8"/></g><g><path d="M60.5373,78.826c1.224,0.7067,2.4466,1.949,3.3757,3.5582c0.1096,0.1898,0.109,0.4022-0.0013,0.4651        c-0.0582,0.0331-0.1335,0.023-0.2079-0.0199c-0.0745-0.043-0.1481-0.1189-0.2028-0.2172        c-0.8165-1.4107-1.8901-2.5002-2.965-3.1208c-1.075-0.6206-2.1512-0.7723-2.973-0.3075        c-0.0582,0.0331-0.1271,0.0267-0.2032-0.0172c-0.0749-0.0432-0.1497-0.1199-0.2075-0.2199        c-0.1096-0.1899-0.109-0.4023,0.0013-0.4651C58.088,77.9483,59.3133,78.1193,60.5373,78.826z" fill="#DEE7F8"/></g></g><g><path d="M60.5233,83.724c0.4748,0.2741,0.8614,0.9368,0.8598,1.4893       c-0.0015,0.5442-0.3906,0.7659-0.8654,0.4918c-0.4796-0.2769-0.8601-0.943-0.8586-1.4871       C59.6606,83.6654,60.0436,83.4471,60.5233,83.724z" fill="#DEE7F8"/></g></g></g></g></g></svg>