<?xml version="1.0" ?><!DOCTYPE svg  PUBLIC '-//W3C//DTD SVG 1.1//EN'  'http://www.w3.org/Graphics/SVG/1.1/DTD/svg11.dtd'><svg enable-background="new 0 0 126 126" id="Layer_1" version="1.1" viewBox="0 0 126 126" xml:space="preserve" xmlns="http://www.w3.org/2000/svg" xmlns:xlink="http://www.w3.org/1999/xlink"><g><g><g><g><path d="M106.2249,64.8444c-1.4539,0.2116-15.2573-4.3107-16.7204-10.4946      c-1.4632-6.1924-12.506-12.6379-17.2082-11.0459s-10.8676-0.1105-10.8676-0.1105l-3.8832-1.8772l-0.8834-0.4233H56.653      L1,73.0254l65.8872,38.2973l53.9782-31.1665c1.6104-0.9292,2.9538-2.3095,3.6532-4.0303      C128.4018,66.6295,107.5592,64.6602,106.2249,64.8444z" fill="#F3F6FD"/><g><path d="M95.7895,73.5323c-0.4978-0.3633-0.7262-0.2378-1.4757-0.6662       c-0.9737-0.5566-3.109,3.0854-5.2698,3.4758c-2.1981,0.3974,2.7968-1.0844,2.5024,0.4989       c0.1156-0.273-2.6823,3.4433-4.4934,5.0262c-0.7472,0.6531-1.8148,2.7742-3.2023,3.7202       c0.1377-0.2375,0.3281-0.4784,0.5673-0.7194c0.614-0.6178,4.309-10.5482,5.3079-13.289l-0.0043-0.0015       c0.2206-0.1286,0.582-0.967,0.1582-1.2765c-0.4977-0.3633-0.7261-0.2378-1.4757-0.6662       c-0.9737-0.5566-2.9408,3.437-5.1016,3.8274c-2.1983,0.3974,1.8847,0.5953,1.5892,2.1796       c-0.3847,0.7305-3.7165,9.0855-4.5422,9.6187c-0.9167,0.5912-4.0603,3.3026-5.9179,6.1933       c-0.2972,0.1066-0.4814,0.1769-0.4814,0.1769c-0.6258,1.9327-3.3906,5.0108-5.1235,7.4436       c-1.0797,1.5156,0.0782,1.8801,1.1045,1.9397c-0.3516,0.2566-0.6628,0.5554-0.9297,0.8501l-1.5094,0.4001l-1.0985,1.4165       l-0.0003,0l0.0002,0h-0.0001l0.0002,0l0.4284-0.0254c0.0201-0.0014,0.04-0.0047,0.0591-0.0099l0.5412-0.143       c-0.2177,0.5556,0.4199,0.938,1.5288,0.876c0.5586-0.0314,1.207-0.0498,1.9428-0.0248       c1.6727,0.0568,2.7507-0.8635,3.1983-1.7236c0.0009,0.0003,0.0025,0.001,0.0035,0.0018       c0.0159-0.0287,0.0276-0.0588,0.0427-0.0878c0.0036-0.0075,0.0075-0.0151,0.011-0.0226       c0.0462-0.0911,0.0815-0.1851,0.1088-0.2811c0.0108-0.011,0.0256-0.0187,0.0351-0.0308       c0.0831-0.1076,0.0843-0.2252,0.0299-0.3222c0.0189-0.2573-0.039-0.47-0.1857-0.5854c0,0-0.0012,0.0051-0.0014,0.0063       c-0.0152-0.0481-0.0404-0.095-0.0663-0.1422c0.2107-0.1038,0.4871-0.247,0.773-0.4077       c1.1695-0.3659,2.8646-0.8125,3.659-1.1153c1.093-0.2633,1.8973-0.9063,1.8973-0.9063       c0.7981-0.5986,3.7632-3.6114,4.8921-4.9025c0.2852-0.3259,0.2568-0.6277-0.0587-0.8189L83.2858,92.1       c0.7196-0.7863,1.299-1.3523,1.299-1.3523c-0.0002-0.0004-0.0005-0.0004-0.0005-0.0004l0.0009-0.0004       c0,0,3.2389-1.9761,4.3147-5.0455c0.9867-2.8153,1.7883-3.624,6.4478-11.2964c0,0-0.0164-0.0046-0.0215-0.0062       C95.5795,74.2462,96.1915,73.8259,95.7895,73.5323z" fill="#E1E9F4"/></g><g><g><path d="M62.5383,71.2584l-4.7867-10.0627C57.4532,61.0663,39.845,50.8573,39.845,50.8573l-15.7232,13.945        l0.7886,1.5742L51.7268,82.046l-0.3998,0.7437c-0.0602,0.1289-0.0565,0.2573-0.0008,0.3564l0.2525,0.5103        c0.0494,0.0938,0.1472,0.165,0.2845,0.1973l2.9786,0.5752c0.2173,0.0352,0.4591-0.043,0.6226-0.1953l13.9974,8.1748        l2.9296,0.7847l0.8967-1.3809l2.3172-13.6982C71.9488,75.7502,66.0087,73.8848,62.5383,71.2584z" fill="#E1E9F4"/></g></g><polygon fill="#FAFCFF" points="120.5115,80.3604 83.0114,58.8565 74.0377,64.0375 111.5382,85.5415 110.9995,85.8524       73.499,64.3484 45.5103,80.5076 83.0119,102.0124 82.4733,102.3233 44.9716,80.8185 36.0028,85.9968 73.5048,107.5017       72.9661,107.8126 6.8241,69.6628 7.3628,69.3514 35.5785,85.7502 44.5473,80.5723 16.3315,64.1735 16.8701,63.8621       45.086,80.2613 54.1373,75.0354 25.9212,58.6366 26.3047,58.4151 54.5207,74.8139 63.6497,69.5434 35.4334,53.1442       35.812,52.9258 64.0282,69.325 73.0747,64.1018 44.8582,47.7026 45.3968,47.3917 73.6134,63.7908 82.5871,58.6098       54.3703,42.2106 54.909,41.8997 121.0502,80.0495     "/></g><g><g><g><g><g><g><g><g><path d="M90.5345,29.022c-0.6812-0.1381-3.2187-0.5442-3.3741,1.0194             c-0.1794,1.807,1.244,3.3638,1.244,3.3638c1.2426,0,1.8431-0.6852,2.13-1.4423V29.022z" fill="#E0A4B2"/><path d="M92.2339,72.2454l3.4199,0.0496c0,0,0.6637,1.1045-0.094,1.8148             c-0.7577,0.7103-0.8964,0.4653-1.9523,1.3023c-1.3715,1.0872-2.6819,1.6929-4.5634,0.9299             C87.1297,75.5656,91.3968,75.3412,92.2339,72.2454z" fill="#2A2A5E"/><path d="M86.2901,69.035l3.462,0.2122c0,0,0.6637,1.1045-0.094,1.8148             c-0.7577,0.7103-0.8964,0.4653-1.9523,1.3023c-1.3715,1.0872-2.6819,1.6928-4.5634,0.9299             C81.2279,72.5178,85.4529,72.1307,86.2901,69.035z" fill="#2A2A5E"/><path d="M90.5215,57.9451c1.0762-4.1181-0.4777-8.7257-0.4777-8.7257l-5.504-0.9291             c-0.0288,5.5219,1.4426,10.5927,2.0021,11.6688s-0.2797,9.3594-0.2797,9.3594c1.4225,1.2421,3.5344,0,3.5344,0             c0.9611-5.3559,0.9152-7.8384,0.6913-8.9853C90.333,59.5394,90.317,58.7279,90.5215,57.9451z" fill="#3A3A77"/><path d="M88.0633,48.8429h6.507c0,0,2.0349,3.5453,1.1062,9.4323             c-0.8519,5.3996,0.8922-0.8629,0.0655,14.1295c0,0-1.6228,0.8414-3.5344,0c0,0,1.0436-5.9971,0.12-9.0695             S87.5559,55.3354,88.0633,48.8429z" fill="#4C4A8B"/><path d="M77.5828,37.6198c0.7532,0.1617,1.5134-0.1504,1.9476-0.8093             c1.4915-2.2656,5.0403-7.2423,6.8917-6.3601c2.383,1.1362,0.7561,3.4165,0.7561,3.4165             c-0.6358,0.9846-4.5538,5.1169-6.3295,6.7769c-0.4486,0.4193-1.063,0.5785-1.6554,0.4465l-6.7986-2.1122             c-0.4691-0.8204-0.1846-1.554,0.2413-1.7737L77.5828,37.6198z" fill="#4C4A8B"/><path d="M87.5473,29.4778c0,0-0.5777,1.9468,1.0363,2.4578c0,0,1.6666,0.3463,2.18-1.9509             c0,0,1.0776,2.4525,0.757,3.7502c-0.3207,1.2978-1.1358,15.8474-1.1358,15.8474s-1.9117,0.8254-4.7346-0.6206             c0,0-0.457-11.2223-0.4199-11.4077C85.2673,37.3685,86.187,30.7502,87.5473,29.4778z" fill="#A6C2FF"/><g><path d="M90.7635,29.9846c0,0,0.1752,2.1677-2.0185,5.9983              c-2.0037,3.4989-0.3346,14.2108-0.3346,14.2108s3.8065,1.3107,6.1596-1.3517c0,0-1.4534-6.815-0.6229-10.0679              c0.7151-2.8009,2.256-4.6654,0.4028-6.5769C93.778,31.6073,91.7348,30.677,90.7635,29.9846z" fill="#6262AA"/><path d="M90.7635,29.9846c0,0,0.1752,2.1677-2.0185,5.9983              c-2.0037,3.4989-0.3346,14.2108-0.3346,14.2108s3.8065,1.3107,6.1596-1.3517c0,0-1.4534-6.815-0.6229-10.0679              c0.7151-2.8009,2.256-4.6654,0.4028-6.5769C93.778,31.6073,91.7348,30.677,90.7635,29.9846z" fill="#6262AA"/><g><g><path d="M68.0603,36.296c0.0394,0.0018,0.169-0.0031,0.2936,0.0247                c0.6293,0.1411,0.9945,0.1429,1.4522,0.1693c0.6432,0.037,1.1894,0.0928,1.7599,0.2647l0.0018,0.0005                c0.4509,0.0382,0.8923,0.3955,1.1796,0.7449c0.0009,0.0008,0.0017,0.0017,0.0026,0.0032                c0.1368,0.164,0.5128,0.2274,0.5406,0.2463l-0.0758,1.147l-0.181-0.0799c-0.2142-0.1045-0.4525-0.0856-0.6574,0.0345                c-0.7481,0.4248-1.8797,0.1923-2.4065-0.0438c-0.1451-0.0769-0.2191-0.1395-0.2432-0.1896                c-0.3306-0.3479-0.3211-0.8848-0.1926-1.4664c-0.4788-0.0405-1.3236-0.4252-1.4335-0.5704                c-0.0465-0.052-0.0774-0.1027-0.1024-0.1536C67.9602,36.3686,68.0029,36.2911,68.0603,36.296z" fill="#ECB4BF"/></g></g><path d="M87.7993,40.3919c-0.5718-2.5478-1.3445-6.4932-0.8124-8.6885              c0.1695-0.6992,0.2743-1.2462,0.4667-1.5269c0,0-3.8142-0.6511-3.6402,3.9304s0.9859,10.3231,0.3479,14.0345              c0,0,2.5093,2.1106,4.249,2.0524C88.4104,50.1938,88.5533,43.7523,87.7993,40.3919z" fill="#6262AA"/></g><path d="M85.9356,25.889c0,0-0.1648,1.5019,0.3114,2.1909c0,0-0.149-1.1868,0.5457-2.3851             C87.4875,24.4963,85.9356,25.889,85.9356,25.889z" fill="#5B5D70"/><path d="M90.206,29.1607c0,0-0.0033,0.0194-0.0102,0.0538c-0.0749,0.3747-0.2408,2.4317-1.6122,2.721             l0.9061,0.7861c0,0,1.5284-1.379,1.3897-2.4013L90.206,29.1607z" fill="#6B9EF9"/><g><path d="M91.5801,32.0537c-0.0585-0.5984-0.7574-2.0272-1.1288-2.4705              c-0.1382,0.2671-0.23,0.3402-0.4499,0.539c0.1874,0.6538,0.5369,2.729-1.2564,5.8604              c-0.5765,1.0068-0.8429,2.6162-0.9385,4.3901c1.1671-3.5879,3.5769-6.8222,3.5769-6.8222l-0.6581-0.8676              L91.5801,32.0537z" fill="#4C4A8B"/></g><path d="M87.5121,29.7359c0,0-1.2059-0.2764-0.9888,0.7368s0.9272,2.21,0.9272,2.21l1.1331-0.7471             C87.3988,31.1378,87.5121,29.7359,87.5121,29.7359z" fill="#6B9EF9"/><path d="M87.7885,40.3422c-0.5706-2.5491-1.3304-6.4571-0.8015-8.6387             c0.1695-0.699,0.2743-1.2461,0.4667-1.5268c0,0-0.2013-0.0316-0.5018-0.0305l-1.0541,1.4785l0.5506,0.8417             l-0.7366,0.7479C85.7118,33.2142,86.1049,37.7274,87.7885,40.3422z" fill="#4C4A8B"/><path d="M85.7275,25.9514c0,0-0.3852,6.7798,2.818,5.2681c2.0242-0.9552,2.3347-2.0394,2.6814-3.1612             c0.1155-0.3739,0.1533-0.5253,0.2216-1.2237C91.4485,26.8346,87.3808,21.3399,85.7275,25.9514z" fill="#ECB4BF"/></g><path d="M89.4617,23.6042c-0.7774,0.1195-1.4356,0.146-1.9925,0.1388            c-1.2045-0.0155-2.1928,0.9408-2.1928,2.1455c0.1013,0.0948,0.2061,0.1791,0.3132,0.2366h0.9341            c0.0151-0.0034,0.0301-0.0066,0.045-0.0098c1.2469-0.2683,1.879,0.7616,2.3265,1.9559l0.7627,0.0909l0.397-0.0348            c0.0345-0.7257,1.0872-1.0877,1.0699-0.828c-0.0518,0.7412-0.339,1.9494-0.339,1.9494            C91.856,28.1274,92.3989,23.1529,89.4617,23.6042z" fill="#8C4031"/></g></g></g></g></g><g><g><path d="M89.5819,27.857l0.0451,0.1953l0.0645,0.4695c0.0341-0.0057,1.0348-0.3266,1.7812-0.8126         c0.1062-0.3755,0.1388-0.7215,0.1547-1.0524C91.0571,27.221,89.5909,27.8549,89.5819,27.857z" fill="#2A2A5E"/><path d="M90.1233,27.8646c-0.0381-0.1234-0.1655-0.1966-0.2923-0.172         c-0.5207,0.1008-1.5752-0.1218-1.5752-0.1218s0.398,1.1378,0.6498,1.2935s1.0442,0.0517,1.2069-0.4126         C90.1943,28.2184,90.1689,28.0121,90.1233,27.8646z" fill="#6262AA"/><path d="M90.1432,28.1474c-0.0356-0.088-0.1614-0.1381-0.2885-0.1179         c-0.522,0.0828-1.5706-0.0564-1.5706-0.0564s0.3749,0.8103,0.6233,0.9173c0.2484,0.107,1.0417,0.0166,1.2134-0.3205         C90.2071,28.4004,90.1858,28.2526,90.1432,28.1474z" fill="#FFFFFF"/><g><path d="M90.0201,28.5793c0.0761-0.1494,0.0573-0.2798,0.0198-0.3725          c-0.0314-0.0776-0.1423-0.1218-0.2544-0.104c-0.3851,0.061-1.1982-0.0076-1.4539-0.0316          c0.0974,0.1964,0.3266,0.6314,0.5133,0.7798C89.1364,28.9151,89.8811,28.852,90.0201,28.5793z" fill="#2A2A5E"/></g><g><g><path d="M91.3764,27.1415c-0.098-0.0476-0.2277-0.0307-0.3657,0.062           c-0.2735,0.1852-0.4763,0.6007-0.4525,0.929c0.0121,0.1625,0.0776,0.2733,0.1742,0.3209l-0.2607-0.1284           c-0.0967-0.0476-0.1621-0.1578-0.1742-0.3209c-0.0237-0.3276,0.1784-0.7437,0.4526-0.9284           c0.138-0.0933,0.2677-0.1102,0.3651-0.062L91.3764,27.1415z" fill="#6262AA"/></g><g><path d="M91.5506,27.4624c0.0237,0.3276-0.1791,0.7438-0.4532,0.9291           c-0.2735,0.1845-0.515,0.0687-0.5393-0.2589c-0.0237-0.3283,0.1791-0.7438,0.4525-0.929           C91.2848,27.019,91.5263,27.1348,91.5506,27.4624z" fill="#3A3A77"/></g><g><g><path d="M89.87,28.3271c-0.0312-0.021-0.0726-0.0256-0.1168-0.0089            c-0.0876,0.0336-0.153,0.1391-0.1459,0.236c0.0036,0.048,0.0243,0.0849,0.0551,0.1058l-0.0631-0.043            c-0.0308-0.0209-0.0515-0.0577-0.055-0.1058c-0.007-0.0967,0.0582-0.2025,0.146-0.2358            c0.0442-0.0169,0.0856-0.0123,0.1166,0.0089L89.87,28.3271z" fill="#6262AA"/></g><g><path d="M89.925,28.433c0.007,0.0967-0.0584,0.2025-0.1461,0.236            c-0.0876,0.0334-0.1644-0.018-0.1716-0.1147c-0.007-0.0969,0.0584-0.2025,0.1459-0.236            C89.841,28.2849,89.9178,28.3362,89.925,28.433z" fill="#4C4A8B"/></g></g><g><path d="M91.0323,27.4995c0.1375-0.0928,0.2587-0.0346,0.2707,0.13           c0.012,0.1646-0.0896,0.3733-0.2271,0.4661s-0.2587,0.0346-0.2707-0.13C90.7931,27.801,90.8948,27.5923,91.0323,27.4995z" fill="#6262AA"/></g></g></g><g><path d="M88.8942,29.0033c0.008,0.106-0.0319,0.2345-0.1034,0.339l-0.385,0.5568l-0.1941-2.6594         l0.4265,0.0091c0.0795,0.0015,0.1336,0.0673,0.141,0.1728L88.8942,29.0033z" fill="#4C4A8B"/><polygon fill="#2A2A5E" points="88.6671,27.7334 88.7493,28.8652 88.4782,29.0483 88.396,27.9165        "/><polygon fill="#3A3A77" points="88.4055,29.8989 84.5548,28.0093 84.3608,25.3504 88.2115,27.24        "/><polygon fill="#3A3A77" points="88.4055,29.8989 84.5548,28.0093 84.3608,25.3504 88.2115,27.24        "/><polygon fill="#3A3A77" points="88.4055,29.8989 84.5548,28.0093 84.3608,25.3504 88.2115,27.24        "/><polygon fill="#A6C2FF" points="84.7359,27.887 84.5738,25.6661 88.0303,27.3622 88.1925,29.5832        "/><path d="M88.6927,27.2617c-0.0163-0.0081-0.0352-0.0128-0.0547-0.013l-0.4264-0.0086l-3.851-1.8896         l0.4264,0.0086c0.0201,0.0002,0.0384,0.0049,0.0547,0.013L88.6927,27.2617z" fill="#6262AA"/></g></g></g><polygon fill="#B6CBEA" opacity="0.35" points="88.0303,27.3624 84.5738,25.6661 24.2018,14.6773 22.5194,15.6549       22.4518,40.8154 57.7515,61.1954 62.5383,71.2584 75.0109,78.4596 75.6053,78.1139 88.1925,29.5831     "/><g><g><g><g opacity="0.3"><g enable-background="new    "><g><polygon fill="#1E72C6" points="57.8191,36.0354 59.5015,35.0576 59.434,60.2179 57.7515,61.1957           "/></g><g><polygon fill="#6B9EF9" points="22.5194,15.6551 24.2018,14.6773 59.5015,35.0576 57.8191,36.0354           "/></g><g><polygon fill="#3887E5" points="57.8191,36.0354 57.7515,61.1957 22.4518,40.8154 22.5194,15.6551           "/></g><g><polygon fill="#FFFFFF" points="27.7578,41.0761 27.7578,42.4967 43.3626,51.5062 43.3626,50.0854           "/></g></g></g><g><g enable-background="new    "><g><path d="M39.8062,37.2011c0.5869,0.3389,1.0619,1.1615,1.06,1.839            c-0.0019,0.6744-0.48,0.9467-1.0669,0.6079c-0.5896-0.3404-1.0646-1.163-1.0627-1.8374            C38.7386,37.133,39.2166,36.8607,39.8062,37.2011z" fill="#6262AA"/></g><g><path d="M39.8126,34.9675c1.6584,0.9575,3.0029,3.2861,2.9975,5.1949            c-0.0054,1.9057-1.3586,2.6767-3.0171,1.7192c-1.6611-0.959-3.0055-3.2876-3.0001-5.1933            C36.7982,34.7795,38.1515,34.0084,39.8126,34.9675z M39.794,41.5382c1.4942,0.8627,2.7124,0.1686,2.7172-1.5484            c0.0049-1.717-1.2054-3.8163-2.6996-4.679c-1.4969-0.8642-2.7151-0.167-2.7199,1.55            C37.0868,38.5779,38.2971,40.674,39.794,41.5382" fill="#FFFFFF"/></g><g><path d="M39.8243,30.8437c3.6372,2.1,6.5891,7.2097,6.5772,11.3922            c-0.0118,4.1794-2.983,5.8727-6.6202,3.7727c-3.6399-2.1015-6.5917-7.2144-6.5799-11.3938            C33.2133,30.4323,36.1843,28.7422,39.8243,30.8437z M39.7823,45.6652c3.473,2.0051,6.3091,0.3889,6.3204-3.6018            c0.0113-3.9939-2.8064-8.8711-6.2794-10.8763c-3.4757-2.0067-6.3091-0.3921-6.3204,3.6018            C33.4916,38.7796,36.3066,43.6585,39.7823,45.6652" fill="#FFFFFF"/></g><g><path d="M39.8184,32.9041c2.6465,1.5279,4.796,5.251,4.7873,8.2951            c-0.0086,3.0441-2.1722,4.274-4.8186,2.746c-2.6492-1.5295-4.7987-5.2495-4.79-8.2936            C35.0057,32.6075,37.1693,31.3746,39.8184,32.9041z M39.7881,43.6018c2.4823,1.4331,4.5107,0.2771,4.5188-2.5752            c0.0081-2.8554-2.0072-6.346-4.4895-7.7791c-2.4849-1.4347-4.5134-0.2788-4.5215,2.5766            C35.2879,38.6764,37.3032,42.1671,39.7881,43.6018" fill="#FFFFFF"/></g></g></g><g><polygon fill="#FFFFFF" points="54.3891,48.6522 55.2227,51.6536 55.8721,50.3341 56.0071,50.4809 55.2135,52.0954           54.3904,49.1353 53.2317,52.0549 53.045,49.0348 52.2458,51.2445 51.8641,48.1103 51.0653,50.6148 50.4718,47.7292           49.8342,49.1012 49.2265,46.5264 49.3672,46.5572 49.8542,48.6212 50.5037,47.2271 51.075,50.0098 51.914,47.382           52.3021,50.5687 53.1389,48.2525 53.3281,51.3229         "/></g><g><polygon fill="#FFFFFF" points="37.0351,30.3514 36.7336,30.0269 45.6873,21.7008 62.0937,31.1729 61.8722,31.5567           45.7492,22.2481         "/></g></g><g><g><path d="M64.1963,27.2212l-2.2605-1.3048c-0.1074-0.059-0.1987-0.0645-0.2685-0.0267l-0.3812,0.22          c0.0698-0.0375,0.1664-0.032,0.2738,0.027l2.2604,1.3046c0.2094,0.1235,0.3812,0.4189,0.3812,0.6604l-0.0107,2.5989          c0,0.118-0.043,0.204-0.1127,0.2415l0.3812-0.22c0.0698-0.0378,0.1128-0.1235,0.1128-0.2417l0.0054-2.5986          C64.5776,27.6399,64.4057,27.3446,64.1963,27.2212z" fill="#1E72C6"/><path d="M68.7817,40.5531l-2.2604-1.3048c-0.1074-0.059-0.204-0.0645-0.2738-0.027l-0.3759,0.2202          c0.0698-0.0375,0.1664-0.0322,0.2685,0.0267l2.2658,1.3048c0.2094,0.1235,0.3758,0.4189,0.3758,0.6604l-0.0053,2.5986          c0,0.1182-0.043,0.2042-0.1128,0.2417l0.3812-0.2202c0.0644-0.0375,0.1074-0.1232,0.1074-0.2415l0.0107-2.5989          C69.1629,40.9718,68.9911,40.6763,68.7817,40.5531z" fill="#1E72C6"/><path d="M64.1856,32.5582l-2.2658-1.3101c-0.102-0.0593-0.1987-0.0645-0.2685-0.0215l-0.3812,0.2202          c0.0698-0.043,0.1664-0.0378,0.2738,0.0212l2.2605,1.3101c0.2094,0.1182,0.3812,0.4137,0.3812,0.6552l-0.0107,2.5986          c0,0.1235-0.043,0.2042-0.1074,0.2472l0.3759-0.2202c0.0698-0.043,0.1127-0.1235,0.1127-0.247l0.0054-2.5989          C64.5614,32.9716,64.395,32.6762,64.1856,32.5582z" fill="#1E72C6"/><path d="M64.1695,37.89l-2.2658-1.3048c-0.102-0.059-0.1987-0.0645-0.2685-0.027l-0.3329,0.1987          c0.0644-0.016,0.1396,0,0.2255,0.0482l2.2604,1.3048c0.2094,0.1235,0.3812,0.4187,0.3812,0.6552l-0.0054,2.6039          c-0.0054,0.1182-0.043,0.2042-0.1128,0.2417l0.3759-0.2202C64.497,41.353,64.54,41.267,64.54,41.149l0.0054-2.6041          C64.5507,38.3086,64.3789,38.0132,64.1695,37.89z" fill="#1E72C6"/><path d="M68.7978,35.2213l-2.2605-1.3048c-0.1074-0.0645-0.204-0.0697-0.2738-0.0267L65.8877,34.11          c0.0698-0.043,0.1611-0.0378,0.2685,0.0267l2.2604,1.3046c0.2094,0.1182,0.3812,0.4137,0.3812,0.6552l-0.0054,2.5989          c0,0.1232-0.043,0.204-0.1128,0.247l0.3759-0.2202c0.0698-0.043,0.1128-0.1235,0.1128-0.247l0.0107-2.5986          C69.179,35.64,69.0072,35.3396,68.7978,35.2213z" fill="#1E72C6"/><path d="M68.8139,29.8895l-2.2658-1.3101c-0.102-0.059-0.1987-0.0645-0.2685-0.0267l-0.3759,0.22          c0.0644-0.0375,0.1611-0.032,0.2685,0.027l2.2605,1.3101c0.2094,0.118,0.3812,0.4134,0.3812,0.6549l-0.0053,2.5989          c-0.0054,0.118-0.043,0.204-0.1128,0.2415l0.3759-0.22c0.0698-0.0378,0.1127-0.1235,0.1127-0.2417l0.0054-2.5986          C69.1951,30.303,69.0233,30.0078,68.8139,29.8895z" fill="#1E72C6"/><path d="M73.41,37.8844l-2.2604-1.3048c-0.1074-0.0645-0.204-0.0697-0.2685-0.0267l-0.3812,0.2202          c0.0698-0.043,0.1664-0.0378,0.2685,0.0267l2.2658,1.3048c0.2094,0.1235,0.3812,0.4187,0.3758,0.6549l-0.0053,2.6041          c0,0.118-0.043,0.204-0.1128,0.2417l0.3812-0.2202c0.0698-0.0378,0.1127-0.1235,0.1127-0.2417l0.0054-2.6039          C73.7912,38.3031,73.6194,38.0079,73.41,37.8844z" fill="#1E72C6"/><path d="M73.3993,43.2162l-2.2658-1.3048c-0.102-0.059-0.1987-0.0645-0.2685-0.027l-0.3812,0.2202          c0.0698-0.0375,0.1664-0.0322,0.2738,0.027l2.2604,1.3046c0.2094,0.1235,0.3812,0.4189,0.3812,0.6604l-0.0107,2.5989          c0,0.118-0.043,0.204-0.1074,0.2415l0.3759-0.2202c0.0698-0.0375,0.1128-0.1232,0.1128-0.2415l0.0054-2.5986          C73.7751,43.6349,73.6033,43.3397,73.3993,43.2162z" fill="#1E72C6"/><path d="M73.4261,32.5527l-2.2605-1.3101c-0.1074-0.059-0.204-0.0642-0.2738-0.0215l-0.3759,0.2202          c0.0698-0.043,0.1665-0.0375,0.2685,0.0215l2.2658,1.3101c0.2094,0.118,0.3759,0.4134,0.3759,0.6549l-0.0054,2.5989          c0,0.1182-0.043,0.204-0.1127,0.247l0.3812-0.2202c0.0644-0.0427,0.1074-0.1235,0.1074-0.247l0.0107-2.5986          C73.8073,32.9661,73.6355,32.6709,73.4261,32.5527z" fill="#1E72C6"/></g><g><g enable-background="new    "><g><path d="M63.7898,38.1104c0.2091,0.1207,0.38,0.4167,0.3793,0.6569l-0.0074,2.5998            c-0.0007,0.2404-0.1726,0.3383-0.3818,0.2176l-2.2625-1.3063c-0.2091-0.1207-0.38-0.4165-0.3793-0.6569l0.0074-2.5998            c0.0007-0.2402,0.1726-0.3383,0.3818-0.2176L63.7898,38.1104z" fill="#6B9EF9"/></g></g><g enable-background="new    "><g><path d="M63.8049,32.7768c0.2091,0.1207,0.38,0.4167,0.3793,0.6569l-0.0074,2.5998            c-0.0007,0.2404-0.1726,0.3383-0.3818,0.2176l-2.2625-1.3063c-0.2091-0.1207-0.38-0.4165-0.3793-0.657l0.0074-2.5998            c0.0007-0.2402,0.1726-0.3383,0.3818-0.2176L63.8049,32.7768z" fill="#6B9EF9"/></g></g><g enable-background="new    "><g><path d="M63.82,27.4432c0.2091,0.1207,0.38,0.4167,0.3793,0.6569l-0.0074,2.6            c-0.0007,0.2402-0.1726,0.3381-0.3818,0.2173l-2.2625-1.3063c-0.2091-0.1207-0.38-0.4165-0.3793-0.6567l0.0074-2.6            c0.0007-0.2402,0.1726-0.3383,0.3818-0.2176L63.82,27.4432z" fill="#6B9EF9"/></g></g><g enable-background="new    "><g><path d="M68.404,40.7744c0.2091,0.1207,0.38,0.4167,0.3793,0.6569l-0.0074,2.5998            c-0.0007,0.2404-0.1726,0.3383-0.3818,0.2176l-2.2625-1.3063c-0.2091-0.1207-0.38-0.4165-0.3793-0.6569l0.0074-2.5998            c0.0007-0.2402,0.1726-0.3383,0.3818-0.2176L68.404,40.7744z" fill="#6B9EF9"/></g></g><g enable-background="new    "><g><path d="M68.4191,35.4408c0.2091,0.1207,0.38,0.4167,0.3793,0.6569l-0.0074,2.5998            c-0.0007,0.2404-0.1726,0.3383-0.3818,0.2176l-2.2625-1.3063c-0.2091-0.1207-0.38-0.4165-0.3793-0.6569l0.0074-2.5998            c0.0007-0.2402,0.1726-0.3383,0.3818-0.2176L68.4191,35.4408z" fill="#6B9EF9"/></g></g><g enable-background="new    "><g><path d="M68.4342,30.1072c0.2091,0.1207,0.38,0.4167,0.3793,0.6569l-0.0074,2.6            c-0.0007,0.2402-0.1726,0.3381-0.3818,0.2174l-2.2625-1.3063c-0.2091-0.1207-0.38-0.4165-0.3793-0.6567l0.0074-2.6            c0.0007-0.2402,0.1726-0.3383,0.3818-0.2176L68.4342,30.1072z" fill="#6B9EF9"/></g></g><g enable-background="new    "><g><path d="M73.0182,43.4385c0.2091,0.1207,0.38,0.4167,0.3793,0.6569l-0.0074,2.5998            c-0.0007,0.2404-0.1726,0.3383-0.3818,0.2176l-2.2625-1.3063c-0.2091-0.1207-0.38-0.4165-0.3793-0.6569l0.0074-2.5998            c0.0007-0.2402,0.1726-0.3383,0.3818-0.2176L73.0182,43.4385z" fill="#6B9EF9"/></g></g><g enable-background="new    "><g><path d="M73.0333,38.1048c0.2091,0.1207,0.38,0.4167,0.3793,0.6569l-0.0074,2.5998            c-0.0007,0.2404-0.1726,0.3383-0.3818,0.2176l-2.2625-1.3063c-0.2091-0.1207-0.38-0.4165-0.3793-0.6569l0.0074-2.5998            c0.0007-0.2402,0.1726-0.3383,0.3818-0.2176L73.0333,38.1048z" fill="#6B9EF9"/></g></g><g><path d="M73.0484,32.7712c0.2091,0.1207,0.38,0.4167,0.3793,0.6569l-0.0074,2.6           c-0.0007,0.2402-0.1726,0.3381-0.3818,0.2174l-2.2625-1.3063c-0.2091-0.1207-0.38-0.4165-0.3793-0.6567l0.0074-2.6           c0.0007-0.2402,0.1726-0.3383,0.3818-0.2176L73.0484,32.7712z" fill="#6B9EF9"/></g></g></g></g><g><g opacity="0.4"><g><polygon fill="#1E72C6" points="75.0347,69.5694 75.6292,69.224 75.6053,78.1139 75.0109,78.4594         "/></g><g><polygon fill="#6B9EF9" points="62.5621,62.3684 63.1566,62.0229 75.6292,69.224 75.0347,69.5694         "/></g><g><polygon fill="#3887E5" points="75.0347,69.5694 75.0109,78.4594 62.5383,71.2584 62.5621,62.3684         "/></g></g><g><polygon fill="#4C4A8B" points="67.4853,67.355 70.7186,71.4381 67.4727,71.7838        "/></g></g></g></g></g><g><path d="M89.055,46.7489c-0.0233,0.0109-0.3137,0.2327-0.5058,0.2319c-0.1921-0.0008-0.4699-0.307-1.4883,0.0062     c-0.6953,0.2053-1.0686,0.363-1.2355,0.442c-0.0609,0.0291-0.0622,0.1114-0.004,0.1503     c0.0444,0.0302,0.1032,0.0611,0.1772,0.0836c0.1963,0.0785,0.5186,0.1051,0.9576-0.1379c0.0548-0.03,0.1282-0.0134,0.1581,0.0439     c0.0584,0.1104,0.0529,0.3185-0.4689,0.6011c-0.7845,0.4426-1.0053,0.8755-1.0163,0.899c0,0,0.0146,0.0588,0.1003,0.0944     c0.0976,0.0354,0.3011,0.025,0.6745-0.2202c-0.023,0.0231-0.6369,0.5252-0.3931,0.6088c0.049,0.0238,0.121,0.024,0.252,0.0011     c0,0,0.0711-0.0232,0.2664-0.2221c-0.103,0.1165-0.2502,0.3153-0.1525,0.3513c0.0485,0.0116,0.1206,0.0117,0.2501-0.0461     c0.4724-0.1742,0.6353-0.291,0.6812-0.3377c-0.0433,0.1051-0.152,0.363-0.0298,0.4109c0.0487,0.011,0.1322-0.0001,0.2735-0.0581     c0.4965-0.225,1.3819-0.8737,1.603-1.6332c0.0616-0.2118,0.207-0.3877,0.412-0.4781l0.1686-0.0736L89.055,46.7489z" fill="#ECB4BF"/><path d="M91.8584,43.3749c0.6338-0.4379,0.9273-1.2055,0.7447-1.9732c-0.6286-2.6386-1.8913-8.841,0.0882-9.3777     c2.2529-0.6108,2.4693,2.0588,2.4693,2.0588c0.2817,1.1377,0.4265,6.497,0.4192,8.9278     c-0.0019,0.6141-0.3068,1.1707-0.8088,1.5119l-5.4774,3.5624c-0.919-0.2203-1.2585-0.9301-1.1268-1.3909L91.8584,43.3749z" fill="#4C4A8B"/></g></g></g></svg>