<?xml version="1.0" ?><!DOCTYPE svg  PUBLIC '-//W3C//DTD SVG 1.1//EN'  'http://www.w3.org/Graphics/SVG/1.1/DTD/svg11.dtd'><svg enable-background="new 0 0 126 126" id="Layer_1" version="1.1" viewBox="0 0 126 126" xml:space="preserve" xmlns="http://www.w3.org/2000/svg" xmlns:xlink="http://www.w3.org/1999/xlink"><g><path d="M105.732,54.255c-1.4921,0.2172-15.6579-4.4239-17.1594-10.7702   c-1.5016-6.355-12.8343-12.9697-17.66-11.336c-4.8257,1.6337-11.1529-0.1134-11.1529-0.1134l-3.9852-1.9265l-0.9066-0.4344h-0.0095   L4.4873,58.7579c-4.642,2.6802-4.6517,9.377-0.0175,12.0707l50.2207,29.1911c4.3216,2.5119,9.6569,2.5196,13.9857,0.0202   l52.0806-30.0712c1.6526-0.9536,3.0314-2.3701,3.7491-4.1362C128.4911,56.0869,107.1013,54.0659,105.732,54.255z" fill="#F3F6FD"/><path d="M1.0521,63.9654l26.1662,15.2075l9.26-5.3462L7.5291,57.0019l0.5565-0.3214l28.9489,16.8253l9.3454-5.396   L17.4303,51.2849l0.3959-0.2286l28.9494,16.8248l9.4255-5.4415L27.2517,45.6143l0.3907-0.2256L56.592,62.214l9.3403-5.393   L36.9826,39.9957l0.5561-0.321L66.4885,56.5l9.2651-5.3492L46.8037,34.3251l0.5568-0.3214l67.8776,39.1516l-0.5568,0.3214   L76.1917,51.4054l-9.2651,5.3492l38.4901,22.0714l-0.556,0.321L66.3703,57.0755L37.4725,73.7599l38.4911,22.0722l-0.556,0.321   L36.9163,74.0809l-9.26,5.3466l38.1274,21.8636c-0.2482,0.0758-0.4973,0.146-0.7484,0.2078L1.0137,64.5724   C1.0202,64.3694,1.0284,64.1667,1.0521,63.9654z" fill="#FDFEFF"/><path d="M87.1891,77.3973c0.0084,0.059-0.0423,0.0759-0.1183,0.059c-0.3294-0.0928-1.2077-0.2196-1.2077-0.2196   c-0.6166-0.0843-1.3007,0.1858-2.0777,0.4561c-0.7855,0.2619-0.777,0.4984-1.5118,1.9849   c-0.3801,0.7769-1.1149,1.385-1.7314,1.7989c0.2956,0.5068,0.5912,1.0726,0.9037,1.6638c1.174,2.1875-0.7685,1.9426-0.7685,1.9426   c-0.3716-0.0254-0.929-0.1435-1.7145-0.3716l2.5,4.0371c0.076,0.1266,0.076,0.2111,0.0338,0.2532l-0.2449,0.2029   c0.0591,0.1773,0.0338,0.3631-0.0676,0.4474l-4.0286,3.4291c-0.0676,0.0592-0.1689,0.0676-0.2618,0.0254l-0.473-0.1858   c-0.0929-0.0423-0.1943-0.1266-0.2703-0.245l-4.679-7.5843l-0.6334-0.0169c-0.1942-0.0085-0.3378,0.0592-0.4138,0.1773   c-0.1942,0.3126-0.4561,0.7011-0.7685,1.1065c0.2618,0.9543,0.4223,1.7483-1.4189,1.5372   c-0.7348,0.6165-1.5118,0.9796-2.179,0.6334c0,0-0.0085,0-0.0169-0.0085c-0.3801-0.1268-0.7855-0.3969-1.1486-0.6419   c-0.1436,0-0.5321,0.0592-0.8277,0.1097c-0.0423,0.3549-0.1098,0.7518-0.2365,1.1065l-0.0085,0.0085   c-0.0338,0.0928-0.076,0.1942-0.1182,0.2872c-0.4392,1.0388-1.0389,2.0945-3.8175,0.5827c0,0-1.1993-0.6926-1.6976-1.4188   c-0.3125-0.4477-0.625-1.098-0.701-1.7061c-0.152-0.4223-0.2365-0.8277-0.1773-1.1741c0.0591-0.3716,0.2787-0.6503,0.5574-0.8784   c0.5236-0.4392,1.25-0.7009,2.1199-0.7685l1.2922-0.0843c-0.152-0.4646-0.3969-0.946-0.7094-1.4275l-0.0085-0.0085   c-0.1942-0.2365-0.2872-0.4644-0.3209-0.6755c0,0,0-0.0087,0-0.0169c-0.0422-0.1775-0.0422-0.3464,0.0422-0.4984   c0-0.0085,0-0.0169,0.0085-0.0254c0.0507-0.152,0.1098-0.245,0.1098-0.245c0.2787-0.4813,2.424-2.576,3.6148-3.5895   c0.2365-0.1942,0.5996-0.2619,1.0219-0.1773l0.1267,0.0254c0.0929-0.2196,0.1858-0.4392,0.2787-0.6673   c0.1267-0.3124,0.3125-0.5912,0.5828-0.8615c0-0.0085,0.0084-0.0085,0.0084-0.0085l-1.2331-2.0015   c-0.076-0.1184-0.0845-0.2027-0.0338-0.245l0.3041-0.2619c0.0507-0.0423,0.152-0.0338,0.2956,0.0254l8.1925,3.3107   c0.2871,0.1184,0.6419,0.4054,0.7939,0.6504l0.2703,0.4392c1.2331,0.532,2.3901,1.0135,3.1503,1.2669   c0.1351,0.0169,0.2618,0.0423,0.3801,0.0845c1.0135-0.7349,2.2381-1.2161,2.6097-1.3599c0.6419-0.2534,1.098-1.1065,1.098-1.1065   c-1.0135-0.9543,0.4223-1.2669,0.8361-1.2246c0.4138,0.0507,0.8614-0.4223,0.8614-0.4223l0.3716,0.3041   c0,0-0.5321,0.3039-0.6419,0.4138c-0.1097,0.1181,0.0338,0.532,0.7771,0.2365c0.7432-0.2957,0.6757-0.2196,1.9932,0.4477   C87.037,76.8228,87.1806,77.2282,87.1891,77.3973z" fill="#E1E9F4"/><path d="M31.0755,72.7568l5.0676-15.6993c0.0969-0.3001,0.4662-0.5238,1.0648-0.5019   c0.3819,0.0203,0.7544,0.1406,1.0762,0.3474c0.4984,0.3322,0.6776,0.7329,0.5773,1.0434l-5.0642,15.6889   c-0.1236,0.3828-0.3683,0.6809-0.6762,0.8558c-0.1742,0.115-0.2929,0.3055-0.3597,0.5124l-1.9407,6.0123   c-0.1571,0.4866-0.6532,0.7491-1.1085,0.6021c-0.445-0.1436-0.694-0.6467-0.5369-1.1333l1.9407-6.0123   c0.0668-0.2069,0.0819-0.4308-0.0025-0.6293C30.9762,73.5246,30.952,73.1396,31.0755,72.7568z" fill="#E1E9F4"/><g><path d="M95.4625,60.5145l-0.009,7.125c-0.0045,1.3266-0.8723,2.6487-2.6127,3.6604l-15.9096,9.2454    c-3.503,2.0325-9.1959,2.0325-12.7169,0l-30.5286-17.623c-1.7717-1.0253-2.6576-2.3697-2.6576-3.7098l0.0135-7.116    c0,1.34,0.8859,2.6801,2.6531,3.6963l30.5286,17.6273c3.521,2.0326,9.2184,2.0326,12.7169,0l15.9096-9.2453    C94.5901,63.1632,95.458,61.8411,95.4625,60.5145z" fill="#E1E9F4"/></g><g><g><g enable-background="new    "><g><path d="M31.1102,48.6124c-0.0309-0.1481-0.048-0.2966-0.0573-0.445       C31.0611,48.3164,31.0786,48.465,31.1102,48.6124z" fill="#83A1CC"/><path d="M31.043,47.9715c0,0.0652,0.0057,0.1305,0.0098,0.1959c-0.0014-0.0256-0.0091-0.0507-0.0098-0.0764       V47.9715z" fill="#83A1CC"/><path d="M31.2976,49.2135c-0.0666-0.1573-0.1158-0.3174-0.156-0.4783       C31.1828,48.8955,31.2308,49.0552,31.2976,49.2135z" fill="#83A1CC"/><path d="M31.1416,48.7352c-0.0105-0.0409-0.0226-0.0817-0.0314-0.1228       C31.1187,48.6535,31.1314,48.6943,31.1416,48.7352z" fill="#83A1CC"/><path d="M31.4172,49.4629c0.0831,0.1611,0.1767,0.3169,0.2858,0.4728       C31.5938,49.7852,31.4951,49.624,31.4172,49.4629z" fill="#83A1CC"/></g><g><path d="M31.0458,48.0268c0.0004,0.0214-0.0036,0.0429-0.0028,0.0642v-0.1195       C31.043,47.99,31.0455,48.0084,31.0458,48.0268z" fill="#9EB5DF"/><path d="M92.8074,52.6847L62.2838,35.0585c-3.5231-2.0371-9.2184-2.0371-12.7208,0l-15.9114,9.2444       c-1.7647,1.0281-2.6334,2.3785-2.6058,3.7239c0.0008,0.0468,0.0042,0.0936,0.0071,0.1406       c-0.0014-0.0256-0.0091-0.0507-0.0098-0.0764l-0.0156,6.9997c0,1.3354,0.8886,2.6813,2.6606,3.7102l30.5288,17.6209       c3.5179,2.0319,9.2132,2.0319,12.7156,0l15.9062-9.2443c1.7408-1.0133,2.6086-2.3332,2.6138-3.6635l0.0104-7.1242       C95.4628,55.0491,94.5794,53.7083,92.8074,52.6847z M31.1102,48.6124c0.0086,0.0411,0.0212,0.0818,0.0314,0.1228       C31.1311,48.6944,31.119,48.6535,31.1102,48.6124z M31.4172,49.4629c0.0831,0.1611,0.1767,0.3169,0.2858,0.4728       C31.5938,49.7852,31.4951,49.624,31.4172,49.4629z" fill="#9EB5DF"/><path d="M31.1102,48.6124c-0.0309-0.1481-0.048-0.2966-0.0573-0.445       C31.0611,48.3164,31.0786,48.465,31.1102,48.6124z" fill="#9EB5DF"/><path d="M31.1416,48.7352c-0.0105-0.0409-0.0226-0.0817-0.0314-0.1228       C31.1187,48.6535,31.1314,48.6943,31.1416,48.7352z" fill="#9EB5DF"/><path d="M31.043,47.9715c0,0.0652,0.0057,0.1305,0.0098,0.1959c-0.0014-0.0256-0.0091-0.0507-0.0098-0.0764       V47.9715z" fill="#9EB5DF"/><path d="M31.2976,49.2135c-0.0666-0.1573-0.1158-0.3174-0.156-0.4783       C31.1828,48.8955,31.2308,49.0552,31.2976,49.2135z" fill="#9EB5DF"/><path d="M31.4172,49.4629c0.0831,0.1611,0.1767,0.3169,0.2858,0.4728       C31.5938,49.7852,31.4951,49.624,31.4172,49.4629z" fill="#9EB5DF"/></g><g><path d="M95.4625,56.3904l-0.009,7.125c-0.0045,1.3266-0.8723,2.6487-2.6127,3.6604l-15.9096,9.2454       c-3.503,2.0326-9.1959,2.0326-12.7169,0L33.6858,58.7983c-1.7717-1.0253-2.6576-2.3697-2.6576-3.7098l0.0135-7.116       c0,1.34,0.8859,2.6801,2.6531,3.6963l30.5286,17.6273c3.521,2.0326,9.2184,2.0326,12.7169,0l15.9096-9.2453       C94.5901,59.0391,95.458,57.7169,95.4625,56.3904z" fill="#83A1CC"/></g><g><path d="M92.8093,52.6829c3.5228,2.0339,3.5414,5.3325,0.0415,7.3664l-15.9106,9.2462       c-3.4999,2.0339-9.1947,2.0339-12.7175,0.0001L33.695,51.6704c-3.5228-2.0339-3.5413-5.3325-0.0414-7.3664l15.9106-9.2462       c3.4999-2.0339,9.1946-2.0339,12.7174,0L92.8093,52.6829z" fill="#9EB5DF"/></g></g></g><g><path d="M90.911,52.7009c2.8032,1.6184,2.8181,4.2432,0.03,5.8634l-14.8665,8.6395     c-2.785,1.6185-7.3195,1.6203-10.1227,0.0018l-30.3664-17.532c-2.8063-1.6202-2.818-4.2467-0.033-5.8652l14.8665-8.6395     c2.7881-1.6202,7.3194-1.6202,10.1256,0L90.911,52.7009z" fill="#B6CBEA"/></g><g><path d="M89.0452,53.1128c2.0146,1.1631,2.022,3.048,0.0237,4.2093L75.231,65.3638     c-1.9982,1.1612-5.2522,1.1631-7.2669,0L37.4531,47.7482c-2.0146-1.1631-2.022-3.048-0.0238-4.2092l13.8378-8.0417     c1.9983-1.1613,5.2523-1.1632,7.2669,0L89.0452,53.1128z" fill="#DEE7F8"/></g><g><path d="M67.3537,59.6068L47.1184,47.9239c-1.9188-1.1078-4.7657-1.4748-7.3067-0.9414l-2.6795,0.5607     c0.1012,0.0703,0.2068,0.1391,0.3208,0.205l30.5111,17.6156c0.0235,0.0135,0.0493,0.0249,0.0731,0.0381l0.9678-1.5645     C69.9155,62.3624,69.2724,60.7145,67.3537,59.6068z" fill="#4C4A8B"/></g><g><path d="M45.1123,49.3634c0.3583,0.2069,0.362,0.5434,0.0042,0.7513c-0.3559,0.2069-0.937,0.2058-1.2953-0.001     c-0.3601-0.2079-0.362-0.5434-0.006-0.7503C44.1729,49.1555,44.7522,49.1555,45.1123,49.3634z" fill="#6B9EF9"/><path d="M49.0335,51.6273c0.3601,0.2079,0.362,0.5434,0.0042,0.7513c-0.3559,0.2068-0.9352,0.2069-1.2953-0.001     c-0.3583-0.2069-0.3602-0.5424-0.0042-0.7492C48.0959,51.4204,48.6752,51.4204,49.0335,51.6273z" fill="#6B9EF9"/><path d="M52.9566,53.8923c0.3583,0.2069,0.362,0.5434,0.0042,0.7513c-0.3559,0.2069-0.937,0.2058-1.2953-0.001     c-0.3583-0.2069-0.362-0.5434-0.006-0.7503C52.0172,53.6844,52.5983,53.6854,52.9566,53.8923z" fill="#6B9EF9"/><path d="M56.8797,56.1573c0.3583,0.2069,0.3602,0.5424,0.0024,0.7503c-0.3559,0.2069-0.9352,0.2069-1.2935,0     c-0.3601-0.2079-0.362-0.5434-0.006-0.7503C55.9403,55.9494,56.5196,55.9494,56.8797,56.1573z" fill="#6B9EF9"/><path d="M60.8008,58.4212c0.3601,0.2079,0.362,0.5434,0.0042,0.7513c-0.3559,0.2069-0.9352,0.2069-1.2953-0.001     c-0.3583-0.2069-0.3619-0.5434-0.006-0.7503C59.8615,58.2134,60.4426,58.2144,60.8008,58.4212z" fill="#6B9EF9"/><path d="M64.7243,60.6865c0.3583,0.2069,0.3602,0.5424,0.0024,0.7503c-0.3559,0.2069-0.9352,0.2069-1.2935,0     c-0.3601-0.2079-0.362-0.5434-0.006-0.7503C63.785,60.4786,64.3642,60.4786,64.7243,60.6865z" fill="#6B9EF9"/></g><g><g><g><path d="M37.7943,56.6798c0.1488,0.0907,0.2686,0.3097,0.2682,0.4902l-0.0075,2.0753       c-0.0005,0.1805-0.1211,0.2536-0.2699,0.1629l-3.1277-1.9058c-0.1488-0.0907-0.2691-0.3106-0.2686-0.4911l0.0075-2.0753       c0.0005-0.1805,0.1216-0.2527,0.2704-0.162L37.7943,56.6798z" fill="#3A3A77"/></g><g><g enable-background="new    "><g><path d="M38.2724,57.0418l-0.0076,2.0751c0,0.0897-0.0304,0.1531-0.0782,0.1827l-0.2104,0.1286         c0.0486-0.0297,0.0782-0.093,0.079-0.1827l0.0076-2.0759c0-0.1803-0.12-0.399-0.2688-0.4896l-3.1272-1.906         c-0.0752-0.0457-0.1435-0.0505-0.1921-0.02l0.2096-0.1286c0.0494-0.0296,0.1169-0.0256,0.1921,0.02l3.128,1.906         C38.1532,56.6419,38.2731,56.8607,38.2724,57.0418z" fill="#6262AA"/></g></g></g></g><g><g><g><g enable-background="new    "><g><path d="M35.6742,57.4478l-2.614,1.5923c-0.1927,0.1162-0.3647,0.121-0.484,0.0314          c0.0069,0.0073,0.0138,0.0121,0.0229,0.017l-0.4267-0.2615c-0.1147-0.0726-0.1881-0.2227-0.1881-0.4382          c-0.0023-0.4357,0.2867-0.9635,0.6446-1.1814l2.614-1.5923l0.4267,0.2615L35.6742,57.4478z" fill="#6262AA"/></g></g></g><g><g enable-background="new    "><g><path d="M35.6698,55.8761l-2.6134,1.5922c-0.3575,0.2182-0.647,0.7467-0.646,1.181          c0.0005,0.2155,0.0726,0.3672,0.1891,0.4391l-0.4266-0.2619c-0.116-0.0713-0.1886-0.223-0.1891-0.4385          c-0.001-0.4343,0.2885-0.9633,0.646-1.181l2.6134-1.5923L35.6698,55.8761z" fill="#6262AA"/></g><g><path d="M35.6698,55.8762l0.0042,1.572l-2.6133,1.5924c-0.3577,0.218-0.6491,0.0431-0.6502-0.3911          c-0.0012-0.4342,0.2883-0.963,0.646-1.1809L35.6698,55.8762z" fill="#2A2A5E"/></g></g></g></g><g><g enable-background="new    "><g><path d="M34.156,59.972l-1.2414-0.7607c-0.1196-0.0736-0.1938-0.2302-0.1949-0.451l-0.0055-4.7625         l1.2414,0.7618l0.0055,4.7613C33.9623,59.7429,34.0364,59.8984,34.156,59.972z" fill="#3A3A77"/></g><g><path d="M35.2869,53.9475l0.0064,4.7622c0.0012,0.4466-0.2962,0.9894-0.6638,1.2133         c-0.3676,0.224-0.6669,0.0448-0.6681-0.4018l-0.0064-4.7622L35.2869,53.9475z" fill="#2A2A5E"/></g></g></g><g><g><g enable-background="new    "><g><path d="M37.3258,58.4598l-2.614,1.5923c-0.1927,0.1162-0.3647,0.121-0.484,0.0314          c0.0069,0.0073,0.0138,0.0121,0.0229,0.017l-0.4267-0.2614c-0.1147-0.0726-0.1881-0.2228-0.1881-0.4382          c-0.0023-0.4358,0.289-0.9635,0.6446-1.1815l2.614-1.5923l0.4267,0.2615L37.3258,58.4598z" fill="#6262AA"/></g></g></g><g><g enable-background="new    "><g><path d="M37.3216,56.8879l-2.6134,1.5922c-0.3575,0.2182-0.647,0.7467-0.646,1.181          c0.0005,0.2155,0.0726,0.3672,0.1891,0.4391l-0.4266-0.2619c-0.116-0.0713-0.1886-0.223-0.1891-0.4385          c-0.001-0.4343,0.2885-0.9633,0.646-1.181l2.6134-1.5923L37.3216,56.8879z" fill="#6262AA"/></g><g><path d="M37.3216,56.888l0.0042,1.572l-2.6133,1.5924c-0.3577,0.218-0.6491,0.0431-0.6502-0.3911          c-0.0012-0.4342,0.2883-0.963,0.646-1.1809L37.3216,56.888z" fill="#2A2A5E"/><path d="M34.7757,58.9779c-0.1597,0.0972-0.288,0.3342-0.2875,0.5278          c0.0005,0.1936,0.1298,0.2714,0.2894,0.1741c0.1597-0.0972,0.2899-0.3331,0.2893-0.5267          C35.0665,58.9594,34.9354,58.8806,34.7757,58.9779z" fill="#83A1CC"/></g></g></g></g><path d="M35.438,32.9424v22.0095c0,0.3154-0.2827,0.6417-0.8591,0.8047c-0.3697,0.098-0.7611,0.098-1.1309,0      c-0.5763-0.163-0.8699-0.4893-0.8699-0.8156V32.9424c0-0.4022,0.1414-0.7611,0.3806-1.0221      c0.1305-0.163,0.1849-0.3807,0.1849-0.5981v-6.3178c0-0.5113,0.3915-0.9135,0.8699-0.9135c0.4676,0,0.859,0.4022,0.859,0.9135      v6.3178c0,0.2174,0.0544,0.4351,0.1957,0.5981C35.2967,32.1813,35.438,32.5402,35.438,32.9424z" fill="#3A3A77"/></g></g></g><g opacity="0.3"><path d="M73.4646,61.9148l-5.0604,8.7448c2.9655,0.4285,6.2273-0.0223,8.536-1.364l5.3581-3.1138l-2.1675-4.134    L73.4646,61.9148z" fill="#83A1CC"/></g><g><g><path d="M88.6392,62.8911c-1.1706-1.0097-7,1.8337-5.1881,4.0378c0.97,1.1799,2.4999,0.0364,4.4214-1.2806     C89.794,64.3313,88.6392,62.8911,88.6392,62.8911z" fill="#1E72C6"/><g><g><path d="M87.3576,76.6678c-0.2251-0.197-0.7585-0.8266-0.7585-0.8266       c-0.9283-0.0116-1.372-2.9128-2.4684-2.7828c-1.0964,0.1299-0.5472,1.7249-0.304,2.0368       c0.2433,0.3117,0.1912,1.2158,0.1912,1.2158h0.3741c0,0-0.095-0.7949-0.0814-1.0132c0.0137-0.2183,0.3351-0.5377,0.5412,0.4303       c0.2061,0.9681,0.2222,0.8262,1.3016,1.2628c0.805,0.3254,1.1226,0.017,1.2321-0.1607       C87.4187,76.7763,87.4051,76.7096,87.3576,76.6678z" fill="#3A3A77"/><path d="M85.7984,73.5386c-0.2442-0.9696-0.0974-1.2133,0.415-3.4577c0.2984-1.307,0.2495-2.7746,0.1567-3.7725       c-0.04-0.4306-0.0218-1.0728-0.1216-1.6157c-0.0954-0.5193-0.546-0.8981-1.0724-0.938L84.176,63.679       c-1.0412,2.2168-0.1243,6.3961,0.0533,7.2273c0.1775,0.8312-0.0986,2.1523-0.0986,2.1523s-0.3395,0.6741,0.1483,1.2284       c0.4879,0.5541,0.2717,0.0701,0.7974,1.0951c0.5257,1.0256,1.5226,0.459,1.5226,0.459       C86.231,75.3978,86.0426,74.5084,85.7984,73.5386z" fill="#ECB4BF"/></g></g><g><g><path d="M89.8048,74.364c-0.2251-0.197-0.7585-0.8266-0.7585-0.8266c-0.9283-0.0116-1.372-2.9128-2.4684-2.7828       c-1.0964,0.1299-0.5472,1.7248-0.304,2.0368c0.2433,0.3117,0.1912,1.2158,0.1912,1.2158h0.3741c0,0-0.095-0.7949-0.0814-1.0132       c0.0137-0.2183,0.3351-0.5377,0.5412,0.4303c0.2061,0.9681,0.2222,0.8262,1.3016,1.2628       c0.805,0.3254,1.1226,0.017,1.2321-0.1607C89.866,74.4726,89.8524,74.4059,89.8048,74.364z" fill="#3A3A77"/><path d="M88.2457,71.2349c-0.2441-0.9697-0.0974-1.2132,0.415-3.4577c0.2984-1.307,0.2496-2.7747,0.1567-3.7726       c-0.0682-0.7337-0.4519-1.3992-1.0538-1.8241l-1.1404-0.8053c-1.0412,2.2169-0.1244,6.3962,0.0533,7.2273       c0.1776,0.8314-0.0986,2.1523-0.0986,2.1523s-0.3395,0.6743,0.1484,1.2284c0.4879,0.5541,0.2716,0.0701,0.7973,1.0953       c0.5257,1.0255,1.5227,0.4589,1.5227,0.4589C88.6783,73.0942,88.4899,72.2046,88.2457,71.2349z" fill="#ECB4BF"/></g></g><g><g><g><path d="M88.6374,62.8908c-2.1684-0.2096-5.9359,2.4166-5.1883,4.0367        c-1.3775-1.0049-4.9699-2.7012-6.3636-3.2899c-2.7118-1.1506-1.3019-4.9428-1.3019-4.9428s3.4627-2.5604,6.7526-0.3835        C86.3014,60.7962,88.0702,62.0478,88.6374,62.8908z" fill="#3887E5"/></g></g><g><g><g><g><g><g><g><g><g><g><g><path d="M83.5502,54.2961c-0.1028-0.1653-0.1423-0.3613-0.1086-0.5578                 c0.3661-2.1358,0.9496-6.8578-0.2822-7.3326c-1.6241-0.6257-1.8215,1.1929-1.8215,1.1929                 c-0.1437,0.7537-0.2938,4.8823-0.2889,7.017c0.0009,0.4119,0.1551,0.7993,0.423,1.081l4.2635,4.4754                 c0.4178-0.8455,0.9182-0.8639,0.9182-0.8639L83.5502,54.2961z" fill="#1E72C6"/><path d="M83.0657,52.6777c0.8815-1.268,2.3568-1.9223,0.6644-3.8876                 c-0.325-0.3775,0.1794-0.7636-0.2065-1.9083c-0.2495-0.7393-1.2313-0.7745-1.8-0.8485                 c-1.3778-0.1809-2.7912-0.2258-2.7912-0.2258s-0.461,0.6725-0.6859,0.9657c-0.4242,0.5542-0.9859,0.9784-1.601,1.308                 c-0.6483,0.3466-1.3696,1.1557-0.3245,2.9657c0.2684,0.4649,0.4067,1.0015,0.3963,1.5381                 c-0.0401,2.051-0.4835,4.0558-1.0322,6.0321c-0.2192,0.7897-0.2524,1.6388-0.2325,2.7581                 c0,0,2.13,2.4121,7.8285-2.5669C83.281,58.8081,82.1356,54.0154,83.0657,52.6777z" fill="#3887E5"/><path d="M80.586,46.8804c0,0-1.0804-0.0863-1.3613-0.4212                 c-0.5834-0.6916-0.4592-1.8583-0.4592-1.8583s2.2527-1.4154,2.042-0.4756c-0.027,0.1134,0.6483,1.1129,0.7725,1.1129                 C81.8771,46.0917,81.8069,46.605,80.586,46.8804z" fill="#D390A1"/></g></g></g><g><path d="M79.0967,44.9194c0,0-0.672,1.5666-0.5911,1.7571c0.0811,0.1903,1.7633,1.473,1.7633,1.473               l0.3185-1.2679C80.5874,46.8816,79.248,46.2618,79.0967,44.9194z" fill="#1E72C6"/><path d="M81.6673,44.8662c-0.1203,1.3906-1.0799,2.0154-1.0799,2.0154l0.8197,0.9555l0.7647-1.7405               C82.0544,45.91,81.6673,44.8662,81.6673,44.8662z" fill="#1E72C6"/><path d="M81.8931,41.1988c-1.2314-0.8047-4.0506,2.6521-4.0506,2.6521l0.2935,0.7987l0.6912,0.8585               c0.536,0.6658,1.4715,0.9309,2.2344,0.5452c0.2848-0.1438,0.5426-0.3745,0.7103-0.737               C82.3759,44.0107,83.1244,42.0037,81.8931,41.1988z" fill="#ECB4BF"/><path d="M80.8367,39.4524c0,0-1.0388-0.3045-1.7298,0.0388c-0.6473,0.3215-1.5493,1.0707-1.8576,2.2147               c-0.6018,2.233,0.1515,2.9233,1.7084,3.9496c-0.1519-0.1604-0.7933-2.7924,1.0191-3.6236               c0,0,1.6615-1.0686,2.1091-0.3539c0.2755,0.4426,0.4073,1.3349,0.259,2.1714               C82.7669,42.266,83.411,40.3404,80.8367,39.4524z" fill="#3A3A77"/><g><path d="M78.5627,48.383c0.1394,0.4888,0.1696,1.0009,0.2537,1.5024                c0.0502,0.2992,0.1265,0.6088,0.3265,0.8373c0.3255,0.3714,0.876,0.4256,1.3698,0.4351                c0.4939,0.0096,1.0345,0.0165,1.412,0.3353c-0.1424-1.29-0.305-2.6373-1.0324-3.7123                c-0.502-0.7418-1.2364-1.2948-1.7975-1.9927c-0.2188-0.2724-0.4102-0.5652-0.5939-0.8623                c-0.1701-0.2748-0.3344-0.5543-0.4646-0.8501c-0.3559-0.8095-0.4435-1.7341-0.2456-2.5959                c0.1114-0.4853,0.3212-0.9433,0.5964-1.3582c-0.5924,0.4734-1.1754,0.9919-1.4685,1.6866                c-0.189,0.4481-0.2446,0.9422-0.2408,1.4286c0.0072,0.9257,0.2247,1.8494,0.6315,2.6809" fill="#3A3A77"/></g></g></g></g></g></g></g></g></g></g></g></g><g><g><g><g><g><g enable-background="new    "><g><path d="M73.4629,61.3573l0.0017,0.5575c0,0.0831,0.0542,0.1644,0.1644,0.2288l6.227,3.6186           c0.2203,0.1271,0.5779,0.1271,0.7983,0l10.5964-6.1169c0.1119-0.0644,0.1661-0.1491,0.1661-0.2339l-0.0017-0.5558           c0,0.083-0.0559,0.1678-0.1678,0.2321l-10.5947,6.1169c-0.222,0.1288-0.5796,0.1288-0.7983,0l-6.2287-3.6186           C73.5171,61.5234,73.4629,61.4403,73.4629,61.3573z" fill="#2A2A5E"/></g><g><path d="M73.6293,61.1243c-0.2208,0.1275-0.223,0.3342-0.0037,0.4617l6.228,3.6193           c0.2193,0.1274,0.5774,0.1275,0.7982,0l10.5961-6.1177c0.2208-0.1275,0.2219-0.3349,0.0026-0.4623l-6.228-3.6193           c-0.2193-0.1274-0.5763-0.1268-0.7971,0.0006L73.6293,61.1243z" fill="#6262AA"/></g></g></g><path d="M77.014,60.0642l3.3669-1.9439c0.0704-0.0406,0.1842-0.0412,0.2541-0.0007l1.6398,0.953        c0.0699,0.0406,0.0684,0.1066-0.0019,0.1472l-3.3669,1.9439c-0.0703,0.0406-0.183,0.0406-0.253,0l-1.6398-0.953        C76.9433,60.1702,76.9437,60.1049,77.014,60.0642z" fill="#83A1CC"/></g></g></g><g><g enable-background="new    "><g><polygon fill="#83A1CC" points="81.566,60.2352 81.566,64.5285 80.8293,64.9539 77.1243,62.7997       "/></g></g></g></g><path d="M77.9454,56.1723c-0.1027-0.1656-0.1423-0.3613-0.1086-0.5577c0.3661-2.136,0.9619-6.9306-0.214-7.4574    c-1.5887-0.7106-1.8897,1.3174-1.8897,1.3174c-0.1436,0.7534-0.2937,4.8823-0.2889,7.0168    c0.0009,0.4118,0.1551,0.7997,0.423,1.081l4.2635,4.4754c0.4178-0.8453,0.9181-0.8635,0.9181-0.8635L77.9454,56.1723z" fill="#1E72C6"/><g><path d="M91.226,51.006l-0.2085,0.1187l0.2102,0.339l0.0203,7.2049c0,0-10.9523,6.5642-10.8811,6.605     l-0.3576-0.2085c-0.0712-0.0407-0.1169-0.1305-0.1169-0.256l-0.0203-7.2032c0-0.2525,0.178-0.5627,0.3983-0.6898l10.5964-6.1185     c0.1119-0.0644,0.2136-0.0695,0.2847-0.0271l0.3593,0.2068C91.4379,50.9365,91.3379,50.9416,91.226,51.006z" fill="#9EB5DF"/><g><g enable-background="new    "><g><path d="M91.2256,51.0061c0.2218-0.1281,0.401-0.0247,0.4017,0.2289l0.0204,7.202        c0.0007,0.2549-0.1772,0.5632-0.3991,0.6912l-10.5961,6.1177c-0.2207,0.1274-0.401,0.026-0.4017-0.2289l-0.0204-7.202        c-0.0007-0.2537,0.1783-0.5638,0.3991-0.6912L91.2256,51.0061z" fill="#4C4A8B"/></g></g></g><g><path d="M86.0408,57.5784c0.4992-0.2882,0.9048-0.0571,0.9064,0.5159c0.0016,0.5737-0.4013,1.2715-0.9005,1.5598      c-0.4986,0.2879-0.9042,0.0568-0.9058-0.5169C85.1393,58.5641,85.5422,57.8663,86.0408,57.5784z" fill="#3A3A77"/></g></g></g><g><g enable-background="new    "><g><path d="M63.2765,45.226c1.385,0.7996,2.5091,2.7304,2.5046,4.3422c-0.0045,1.5914-1.1359,2.2403-2.521,1.4407      c-1.4027-0.8098-2.5126-2.7528-2.5081-4.3442C60.7566,45.0528,61.8739,44.4161,63.2765,45.226z" fill="#3887E5"/></g></g><g enable-background="new    "><g><path d="M63.2913,40.0101c1.9242,1.111,3.7261,3.0234,5.075,5.3557l-1.2057,0.687      c-1.0345-1.7939-2.4548-3.2121-3.8768-4.0331c-1.422-0.821-2.8457-1.0447-3.887-0.4493l-1.1943-2.0726      C59.5743,38.7362,61.3671,38.8991,63.2913,40.0101z" fill="#3887E5"/></g><g><path d="M63.3028,35.4698c2.7009,1.5594,5.3988,4.3014,7.452,7.8556l-1.1845,0.6993      c-1.7248-2.9895-3.9968-5.298-6.2695-6.6101c-2.2727-1.3121-4.546-1.6278-6.2732-0.6314l-1.1943-2.0728      C57.8982,33.5338,60.602,33.9104,63.3028,35.4698z" fill="#3887E5"/></g><g><path d="M73.9375,40.8629l-0.7783,0.4527c-2.7047-4.6918-6.2705-8.3127-9.8418-10.3773      c-3.5713-2.0589-7.1482-2.5611-9.875-1.0045l0.7783-0.4527c2.7268-1.5566,6.3036-1.0542,9.875,1.0102      C67.667,32.5501,71.2328,36.171,73.9375,40.8629z" fill="#A6C2FF"/><path d="M66.5575,49.1151c0,0.7948-0.2815,1.3523-0.7341,1.6117l-0.7783,0.4527      c0.4526-0.2594,0.7341-0.8224,0.7341-1.6119c0.0055-1.6117-1.115-3.5437-2.5005-4.344      c-0.7065-0.4029-1.3413-0.4471-1.7995-0.1822l0.7783-0.4527c0.4582-0.2649,1.0929-0.2207,1.7995,0.1877      C65.437,45.5713,66.563,47.5032,66.5575,49.1151z" fill="#A6C2FF"/><path d="M71.5308,42.8722l-1.1813,0.701l-0.7783,0.4525l1.1813-0.7009      c-2.0534-3.5549-4.7471-6.2982-7.4518-7.8548c-2.6992-1.562-5.4039-1.9373-7.4683-0.7617l0.7783-0.4527      c2.0644-1.1757,4.7691-0.7948,7.4683,0.7618C66.7838,36.5796,69.4775,39.3174,71.5308,42.8722z" fill="#A6C2FF"/><path d="M69.1463,44.9145l-0.7783,0.4527c-1.3524-2.3349-3.1518-4.2447-5.0782-5.3597      c-1.9209-1.1095-3.7148-1.2696-5.0893-0.5079l0.7783-0.4525c1.3744-0.7618,3.1684-0.6017,5.0893,0.5133      C65.9944,40.6698,67.7939,42.5796,69.1463,44.9145z" fill="#A6C2FF"/></g><g><path d="M63.3166,30.9407c3.5705,2.0614,7.1361,5.6837,9.8444,10.3747l-1.2021,0.6649      c-2.3817-4.113-5.5135-7.2901-8.6491-9.1005c-3.1357-1.8104-6.2752-2.254-8.6724-0.9001l-1.1944-2.0485      C56.1708,28.3788,59.7461,28.8793,63.3166,30.9407z" fill="#3887E5"/></g></g></g><g><polygon fill="#2A2A5E" points="43.0408,59.8471 42.6251,59.6071 42.6275,58.9383 41.4696,58.2697 41.4672,58.9385     41.0515,58.6985 41.049,59.3667 40.4824,59.0396 40.4771,60.9142 43.5996,62.7167 43.6049,60.8423 43.0383,60.5152   "/><polygon fill="#2A2A5E" points="48.0136,62.7181 47.5979,62.4781 47.6004,61.8093 46.4425,61.1409 46.44,61.8097 46.0243,61.5698     46.0219,62.2377 45.4553,61.9106 45.45,63.7852 48.5724,65.5877 48.5777,63.7133 48.0112,63.3862   "/><polygon fill="#2A2A5E" points="52.9865,65.5893 52.5708,65.3493 52.5732,64.6803 51.4153,64.0119 51.4128,64.6807     50.9972,64.4408 50.9947,65.1089 50.4281,64.7818 50.4228,66.6562 53.5453,68.4589 53.5506,66.5845 52.984,66.2574   "/><polygon fill="#2A2A5E" points="57.9593,68.4603 57.5436,68.2203 57.5461,67.5515 56.3882,66.8829 56.3857,67.5517 55.97,67.3118     55.9675,67.9799 55.401,67.6528 55.3957,69.5272 58.5181,71.3299 58.5234,69.4556 57.9568,69.1284   "/><polygon fill="#2A2A5E" points="62.9297,71.9995 62.9322,71.3313 62.5165,71.0913 62.5189,70.4225 61.361,69.7539     61.3585,70.4227 60.9429,70.1828 60.9404,70.8509 60.3738,70.5238 60.3685,72.3984 63.4909,74.2012 63.4963,72.3266   "/></g></g></svg>